<?xml version="1.0" encoding="UTF-8"?>
<svg version="1.1" xmlns="http://www.w3.org/2000/svg" width="2280" height="315">
<path d="M0 0 C13.44258173 -0.59597653 13.44258173 -0.59597653 19 3 C24.16501742 8.21165415 33 19.34537267 33 27 C72.6 26.505 72.6 26.505 113 26 C106.09218549 16.15710701 106.09218549 16.15710701 95.6875 12.75 C93.79370433 12.48500567 91.89835101 12.23010315 90 12 C90 9.69 90 7.38 90 5 C98.05683711 4.54585678 104.61749737 5.39136748 111.625 9.5625 C116.63870717 14.70814684 120.33691279 20.34228197 123 27 C128.94 27 134.88 27 141 27 C141.33 24.36 141.66 21.72 142 19 C145.60191889 12.19637543 150.24234915 8.38856299 157.3125 5.6875 C170.97957341 1.83429749 190.163684 1.27527359 203 8 C208.67580219 11.66883854 212.07746231 15.5114353 214 22 C214 23.65 214 25.3 214 27 C231.49 27 248.98 27 267 27 C267.33 24.03 267.66 21.06 268 18 C270.05288221 12.46690976 273.68645067 9.03129021 278.64453125 6.0078125 C285.82091183 2.93732131 292.67598627 2.66230689 300.375 2.6875 C301.84066406 2.66333008 301.84066406 2.66333008 303.3359375 2.63867188 C312.23335228 2.63275604 321.06345376 4.03134393 328 10 C332.50198862 15.38281248 333.6750257 20.06721484 334 27 C337.63 27 341.26 27 345 27 C345 29.31 345 31.62 345 34 C341.37 34 337.74 34 334 34 C334 53.8 334 73.6 334 94 C331.03 94 328.06 94 325 94 C325 74.2 325 54.4 325 34 C308.83 34 292.66 34 276 34 C276.33 38.62 276.66 43.24 277 48 C277.9075 47.360625 278.815 46.72125 279.75 46.0625 C284.7393648 42.89617234 289.10412134 42.39274658 295 43 C301.32315759 45.03627109 305.23464692 48.00360167 308.61328125 53.73828125 C311.21598623 59.86013663 311.06884625 67.11712917 309.30859375 73.51171875 C307.17056679 78.20822149 304.19017386 81.05796303 300 84 C296.57767028 85.14077657 293.91326783 85.09815117 290.3125 85.0625 C289.13300781 85.05347656 287.95351562 85.04445313 286.73828125 85.03515625 C285.38283203 85.01775391 285.38283203 85.01775391 284 85 C284 82.69 284 80.38 284 78 C284.58007812 77.98582031 285.16015625 77.97164063 285.7578125 77.95703125 C291.84590298 77.58531615 294.77391948 76.43738454 299 72 C300.66515151 67.00454547 300.86592117 61.99161868 298.75 57.125 C295.58236937 53.23029187 295.58236937 53.23029187 290.91796875 51.6796875 C286.92093987 51.48083034 284.58354629 51.66477128 281.0625 53.6875 C277.01187489 58.22910997 276.68368221 62.817337 276.5859375 68.70703125 C276.56657135 69.43242599 276.5472052 70.15782074 276.5272522 70.90519714 C276.46777892 73.20751422 276.42120155 75.50988219 276.375 77.8125 C276.33679042 79.37957832 276.29773697 80.94663631 276.2578125 82.51367188 C276.16210437 86.34228152 276.07795552 90.17098942 276 94 C273.03 94 270.06 94 267 94 C266.67 89.71 266.34 85.42 266 81 C265.05125 81.639375 264.1025 82.27875 263.125 82.9375 C257.16041512 86.30460437 250.83027685 86.78354305 244.25 85 C238.69799039 82.85780868 235.42826462 78.93015112 232.86328125 73.66796875 C230.81947696 67.35159623 230.84329198 59.58498629 233.625 53.5 C236.41999086 48.83512088 239.8995118 45.95891853 244.875 43.6875 C252.21753263 42.07214282 257.26168583 42.9793764 264 46 C264.66 46.66 265.32 47.32 266 48 C266.33 43.38 266.66 38.76 267 34 C250.5 34 234 34 217 34 C217 53.8 217 73.6 217 94 C214.03 94 211.06 94 208 94 C208 74.2 208 54.4 208 34 C203.38 34 198.76 34 194 34 C194.04640625 36.000625 194.0928125 38.00125 194.140625 40.0625 C194.16846482 42.02520753 194.19615266 43.98792019 194.21972656 45.95068359 C194.24946045 47.96347627 194.30031729 49.97592134 194.3515625 51.98828125 C194.4264111 59.43571743 194.36626958 64.82187705 190 71 C185.41775557 74.85030522 180.85434589 74.49447244 175.10546875 74.3515625 C169.93796467 73.76656204 167.45818265 71.652607 164.125 67.875 C162.45768503 63.61408397 162.76301233 59.52032035 163 55 C165.64 55 168.28 55 171 55 C171.99 58.3 172.98 61.6 174 65 C176.85778033 65.68493373 176.85778033 65.68493373 180 66 C183.24849977 64.27773504 183.24849977 64.27773504 184 61 C184.15029988 58.93637009 184.24844448 56.86876085 184.31640625 54.80078125 C184.35451416 53.71192627 184.39262207 52.62307129 184.43188477 51.5012207 C184.47498779 50.11894287 184.51809082 48.73666504 184.5625 47.3125 C184.706875 42.919375 184.85125 38.52625 185 34 C173.45 34 161.9 34 150 34 C150 53.8 150 73.6 150 94 C147.03 94 144.06 94 141 94 C141 74.2 141 54.4 141 34 C135.39 34 129.78 34 124 34 C124 53.8 124 73.6 124 94 C121.03 94 118.06 94 115 94 C115 74.2 115 54.4 115 34 C109.06 34 103.12 34 97 34 C97 53.8 97 73.6 97 94 C94.36 94 91.72 94 89 94 C88.67 90.37 88.34 86.74 88 83 C87.01 83.94875 86.02 84.8975 85 85.875 C79.18409465 90.81677128 72.99287298 91.43386303 65.5234375 91.25 C58.54666393 90.55880262 53.52727504 88.51761646 49 83 C47.0228198 79.04563959 47.43007559 74.29921243 48 70 C50.375 66.8125 50.375 66.8125 53 65 C53.66 65 54.32 65 55 65 C55 64.34 55 63.68 55 63 C53.8553125 62.7215625 53.8553125 62.7215625 52.6875 62.4375 C49.62474912 60.79928441 48.56602666 59.26114523 47.3828125 56.00390625 C46.67937885 52.32164641 47.32935443 49.32682667 49 46 C53.95505918 40.91454453 60.28771701 41.21722599 67 41 C67 38.69 67 36.38 67 34 C56.11 34 45.22 34 34 34 C34 53.8 34 73.6 34 94 C31.03 94 28.06 94 25 94 C25 74.2 25 54.4 25 34 C19.39 34 13.78 34 8 34 C8 53.8 8 73.6 8 94 C5.03 94 2.06 94 -1 94 C-1.33 86.74 -1.66 79.48 -2 72 C-3.08539062 73.15757812 -4.17078125 74.31515625 -5.2890625 75.5078125 C-6.73432437 77.04692254 -8.17963971 78.58598238 -9.625 80.125 C-10.33785156 80.88554687 -11.05070312 81.64609375 -11.78515625 82.4296875 C-13.19372266 83.9287123 -14.60723643 85.42310506 -16.02587891 86.91259766 C-17.26029572 88.21784917 -18.47904331 89.53831217 -19.67333984 90.88037109 C-21.95296191 93.36582811 -23.42041892 94.87755329 -26.7734375 95.5859375 C-27.63195313 95.51632812 -28.49046875 95.44671875 -29.375 95.375 C-30.68597656 95.29378906 -30.68597656 95.29378906 -32.0234375 95.2109375 C-32.67570312 95.14132812 -33.32796875 95.07171875 -34 95 C-28.81643758 88.86157082 -23.42287737 82.92658337 -18 77 C-18.88751953 76.76216797 -18.88751953 76.76216797 -19.79296875 76.51953125 C-26.45256529 74.55315772 -30.11011807 72.17230181 -33.75 66.0625 C-36.52271324 59.26935257 -36.12027947 52.34298865 -36.0625 45.125 C-36.05798828 44.05507812 -36.05347656 42.98515625 -36.04882812 41.8828125 C-36.03709764 39.25518411 -36.01916391 36.62758469 -36 34 C-39.3 34 -42.6 34 -46 34 C-46 31.69 -46 29.38 -46 27 C-11.845 26.505 -11.845 26.505 23 26 C14.80623367 21.28615566 14.80623367 21.28615566 6.4375 19.6875 C5.21933594 19.54699219 4.00117187 19.40648437 2.74609375 19.26171875 C1.83988281 19.17535156 0.93367188 19.08898437 0 19 C0 17.35 0 15.7 0 14 C2.39614126 13.94574774 4.79103853 13.90620973 7.1875 13.875 C7.86103516 13.85824219 8.53457031 13.84148437 9.22851562 13.82421875 C13.28807807 13.78461326 16.34998815 14.19979998 20 16 C19.26121661 14.8676025 18.50841355 13.7443453 17.75 12.625 C17.33234375 11.99851563 16.9146875 11.37203125 16.484375 10.7265625 C14.05027807 7.89532344 11.86590709 7.12819295 8.203125 6.5859375 C6.74132813 6.48152344 6.74132813 6.48152344 5.25 6.375 C4.26515625 6.30023438 3.2803125 6.22546875 2.265625 6.1484375 C1.51796875 6.09945312 0.7703125 6.05046875 0 6 C0 4.02 0 2.04 0 0 Z M280.0625 15.375 C276.91373024 19.38252515 276 21.89296781 276 27 C292.17 27 308.34 27 325 27 C323.93783555 19.30283824 323.93783555 19.30283824 319.8125 14.5625 C319.26207031 14.11003906 318.71164062 13.65757812 318.14453125 13.19140625 C312.56609161 10.09227311 306.8502866 9.63919312 300.625 9.6875 C299.87766602 9.69241455 299.13033203 9.6973291 298.36035156 9.70239258 C291.2062068 9.85422739 285.72789237 10.79447 280.0625 15.375 Z M152.875 17.875 C150.57826185 21.27019436 150.57826185 21.27019436 150 27 C168.15 27 186.3 27 205 27 C203.98759351 20.52767052 203.98759351 20.52767052 200 16 C187.83009245 8.41290283 163.40316979 6.66854476 152.875 17.875 Z M-27 34 C-27.061875 37.444375 -27.12375 40.88875 -27.1875 44.4375 C-27.21481201 45.50411865 -27.24212402 46.5707373 -27.27026367 47.66967773 C-27.33318181 54.98238878 -26.64375076 61.71533997 -21.9375 67.5625 C-17.59673636 69.68670348 -13.73659277 69.87911162 -9 69 C-5.64122458 67.32404662 -3.54092247 65.08911727 -1.85595703 61.6965332 C-0.89284952 58.66244236 -0.7720785 56.22234611 -0.8046875 53.04296875 C-0.80968262 52.04031982 -0.81467773 51.0376709 -0.81982422 50.00463867 C-0.83803223 48.74498291 -0.85624023 47.48532715 -0.875 46.1875 C-0.91625 42.165625 -0.9575 38.14375 -1 34 C-9.58 34 -18.16 34 -27 34 Z M76 34 C76 37.63 76 41.26 76 45 C74.55367187 45.07347656 74.55367187 45.07347656 73.078125 45.1484375 C71.81484375 45.22320312 70.5515625 45.29796875 69.25 45.375 C67.37054687 45.47941406 67.37054687 45.47941406 65.453125 45.5859375 C62.37746013 45.95473894 60.53601073 46.2888083 58 48 C56.56264754 50.87470493 56.61827351 52.81894588 57 56 C58.66946655 58.64265531 58.66946655 58.64265531 62 60 C66.02302349 60.324353 69.97364762 60.23117813 74 60 C74 62.31 74 64.62 74 67 C73.34773438 66.96519531 72.69546875 66.93039063 72.0234375 66.89453125 C66.5589804 66.72527815 62.70732346 66.86178436 58 70 C56.43569752 73.12860495 56.64372716 75.55602925 57 79 C60.87239148 82.87239148 63.75103242 84.17029194 69.125 84.3125 C75.9426792 84.24101713 80.332948 82.38630968 85.375 77.875 C90.28023337 69.1965102 89.24260186 58.5361037 89.125 48.875 C89.11494507 47.42708956 89.10582368 45.97917232 89.09765625 44.53125 C89.077572 41.02052358 89.0383923 37.51076214 89 34 C84.71 34 80.42 34 76 34 Z M242.6875 56.625 C240.53270057 60.93459886 240.1520425 64.26839716 241 69 C243.06838651 72.98903113 245.21719459 75.61014099 249 78 C253.03462028 78.79893471 257.19603657 78.92775262 260.9140625 77.015625 C264.42147314 74.21660764 266.68651803 71.27579769 267.30078125 66.81640625 C267.33358918 60.50634804 266.20236642 57.39669287 261.875 52.6875 C254.73562245 48.49699579 247.92142158 50.68379172 242.6875 56.625 Z " fill="#000000" transform="translate(1291,188)"/>
<path d="M0 0 C104.28 0 208.56 0 316 0 C316 2.31 316 4.62 316 7 C312.7 7 309.4 7 306 7 C306.03480469 7.9178125 306.06960938 8.835625 306.10546875 9.78125 C306.29714699 18.47066333 306.35235629 24.80955464 300.75 31.8125 C294.39071357 36.8710233 288.82330738 37.42500865 281 37 C281.11474466 39.54250021 281.2414697 42.08347338 281.375 44.625 C281.42140625 45.69427734 281.42140625 45.69427734 281.46875 46.78515625 C281.71020155 51.17152608 282.39342731 54.8594834 284 59 C290.10815352 60.24654606 290.10815352 60.24654606 295.9375 58.5625 C298.7140673 55.11282548 299.20481194 52.33738942 300 48 C302.97 48 305.94 48 309 48 C308.59926404 54.51195933 307.93122657 58.72388012 304 64 C298.69615038 68.40106671 293.89258031 68.61685122 287.09765625 68.3828125 C281.28814511 67.66486535 278.30605634 65.64975538 274.625 61 C272.25761991 56.62945213 271.87602449 53.30739526 271.90234375 48.359375 C271.90556641 47.28945313 271.90878906 46.21953125 271.91210938 45.1171875 C271.92048828 44.00601563 271.92886719 42.89484375 271.9375 41.75 C271.94201172 40.62335938 271.94652344 39.49671875 271.95117188 38.3359375 C271.96294603 35.55723783 271.9793916 32.77864591 272 30 C272.92941406 29.96261719 273.85882812 29.92523438 274.81640625 29.88671875 C284.39903413 29.61822675 284.39903413 29.61822675 293 26 C296.97051959 19.77951931 296.346174 14.84591199 297 7 C283.8 7 270.6 7 257 7 C257 26.14 257 45.28 257 65 C258.65 65.66 260.3 66.32 262 67 C265.4528928 70.63953566 266.30736476 73.61769312 266.5 78.5 C266.31360303 83.39957754 265.35212688 86.27541458 262 90 C256.58049394 94.76259623 250.64804336 94.412219 243.74609375 94.27734375 C237.19121271 93.79205016 233.81655953 91.66195872 229.0625 87.3125 C226.48644129 83.17519359 226.11722698 79.79564903 226 75 C228.64 75 231.28 75 234 75 C234.1959375 75.61488281 234.391875 76.22976563 234.59375 76.86328125 C236.34062248 81.65957735 236.34062248 81.65957735 239.73046875 85.3359375 C244.40672908 87.37071744 248.23944561 87.00863503 253.1171875 85.8359375 C255.35877535 85.04182909 255.35877535 85.04182909 257 82 C257.34871643 78.72206555 257.32475128 76.66754431 255.875 73.6875 C253.66115844 71.3909253 253.66115844 71.3909253 248 71 C247.67 62.42 247.34 53.84 247 45 C245.02 46.32 243.04 47.64 241 49 C235.12482804 51.27426011 228.82438789 50.14212208 223.078125 48.03125 C218.39401444 45.70680416 216.13898456 41.84119879 214.37890625 37.10546875 C212.4457445 31.10069199 212.67189974 25.1851986 212.8125 18.9375 C212.82603516 17.78572266 212.83957031 16.63394531 212.85351562 15.44726562 C212.88856907 12.63130525 212.94236475 9.81558871 213 7 C208.05 7 203.1 7 198 7 C198 26.8 198 46.6 198 67 C195.03 67 192.06 67 189 67 C189 47.2 189 27.4 189 7 C184.05 7 179.1 7 174 7 C174.03480469 9.09601563 174.06960937 11.19203125 174.10546875 13.3515625 C174.12891069 15.39695882 174.14710069 17.44233979 174.16479492 19.48779297 C174.17981825 20.90192437 174.20024305 22.31600968 174.22631836 23.72998047 C174.26298954 25.77062397 174.27979036 27.81064792 174.29296875 29.8515625 C174.31653442 31.68968506 174.31653442 31.68968506 174.34057617 33.56494141 C173.84258778 38.58766302 172.17353449 41.82646551 168.625 45.375 C163.12474517 47.84063148 157.93056002 47.73943369 152 47 C148.05988748 45.23374266 146.56611643 43.81143356 144.125 40.3125 C142.65518054 35.98469826 142.79284062 32.5575063 143 28 C145.97 28 148.94 28 152 28 C152.45572917 30.27864583 152.91145833 32.55729167 153.3671875 34.8359375 C153.86658932 37.18673923 153.86658932 37.18673923 156 39 C158.45741537 39.50014953 158.45741537 39.50014953 161 39 C164.27529112 35.74877385 164.40951898 32.9811647 164.51171875 28.484375 C164.56138794 26.79393066 164.56138794 26.79393066 164.61206055 25.06933594 C164.63695557 23.64395508 164.66185059 22.21857422 164.6875 20.75 C164.8421875 13.94375 164.8421875 13.94375 165 7 C153.45 7 141.9 7 130 7 C130 12.28 130 17.56 130 23 C128.17275391 23.05607422 128.17275391 23.05607422 126.30859375 23.11328125 C124.6848671 23.17898117 123.06117051 23.24542709 121.4375 23.3125 C120.23770508 23.34633789 120.23770508 23.34633789 119.01367188 23.38085938 C113.66686073 23.62092028 109.79199159 24.6007881 105 27 C105 29.31 105 31.62 105 34 C109.62360399 36.4730905 113.17940809 37.17323601 118.4375 37.375 C124.40327964 37.70490486 128.54084269 38.95047657 133 43 C135.93963235 47.40944852 136.584789 51.99702944 135.56640625 57.2265625 C134.05578444 61.7840317 132.26117761 64.53798627 128 67 C119.04198103 69.98600632 109.63592918 70.25394205 101 66 C96.65979614 62.57352327 93.79441077 59.06845623 93.0625 53.5 C93.041875 52.345 93.02125 51.19 93 50 C95.97 50 98.94 50 102 50 C102.37125 51.258125 102.7425 52.51625 103.125 53.8125 C104.32492577 56.95119472 104.85918425 57.89271181 107.625 60 C113.0453687 61.60603517 117.78997526 62.01292801 123 59.625 C125.09716677 58.14913969 125.09716677 58.14913969 126 56 C126.29123466 52.65080137 126.36462337 50.64243165 124.6875 47.6875 C121.55246045 44.55246045 118.02148664 44.83224202 113.8125 44.625 C107.08007757 44.13018944 101.69900464 43.4913889 96.5625 38.75 C94.60983331 35.31330662 94.06825715 32.95891468 94 29 C96.55384615 21.33846154 96.55384615 21.33846154 100 19 C106.72979849 16.15852953 113.81157301 16.82053858 121 17 C121 13.7 121 10.4 121 7 C107.14 7 93.28 7 79 7 C79 26.8 79 46.6 79 67 C76.03 67 73.06 67 70 67 C69.67 61.72 69.34 56.44 69 51 C67.02 52.32 65.04 53.64 63 55 C60.4453125 55.390625 60.4453125 55.390625 58.125 55.25 C57.34382813 55.21390625 56.56265625 55.1778125 55.7578125 55.140625 C55.17773438 55.09421875 54.59765625 55.0478125 54 55 C53.57654297 55.91072266 53.57654297 55.91072266 53.14453125 56.83984375 C50.67912306 61.49298618 46.65048558 64.67475721 42 67 C34.41818352 69.25405355 27.0730064 68.27454 20 65 C14.90890007 61.87893439 12.13700612 57.8014214 10.43188477 52.10058594 C9.96422303 49.82598925 9.88666105 47.7741651 9.90234375 45.453125 C9.90556641 44.60878906 9.90878906 43.76445312 9.91210938 42.89453125 C9.92048828 42.02183594 9.92886719 41.14914062 9.9375 40.25 C9.94426758 38.91775391 9.94426758 38.91775391 9.95117188 37.55859375 C9.962926 35.37232671 9.97935751 33.18619821 10 31 C10.83144531 30.84144531 11.66289063 30.68289062 12.51953125 30.51953125 C13.60621094 30.28621094 14.69289063 30.05289063 15.8125 29.8125 C16.89144531 29.59207031 17.97039062 29.37164062 19.08203125 29.14453125 C22.08762158 28.22227177 22.08762158 28.22227177 23.84375 25.90625 C25.34998661 22.12030393 25.56019732 18.7261671 25.6875 14.6875 C25.790625 12.150625 25.89375 9.61375 26 7 C17.42 7 8.84 7 0 7 C0 4.69 0 2.38 0 0 Z M35 7 C34.790715 12.98220039 34.790715 12.98220039 34.61206055 18.96533203 C34.35753265 24.78045852 33.51593911 29.39087796 29.3125 33.75 C25.98805359 35.54699806 22.69134981 36.20020754 19 37 C18.64429647 45.14165858 18.44871564 50.89382746 24 57.3125 C27.63115356 60.37628581 31.24918926 60.27415694 35.78125 60.22265625 C40.23197353 59.77601674 43.09626337 57.20939312 46 54 C44.99757957 51.84094062 44.0261982 50.0318219 42.5078125 48.1875 C39.47602948 43.78905831 38.80624718 37.98277375 39.1484375 32.71484375 C40.19194459 27.60559679 42.41478766 24.58521234 46 21 C49.52991692 18.67057284 52.70895811 18.70093884 56.875 18.6875 C58.06867188 18.67074219 59.26234375 18.65398437 60.4921875 18.63671875 C64 19 64 19 70 22 C70 17.05 70 12.1 70 7 C58.45 7 46.9 7 35 7 Z M222 7 C221.938125 10.815625 221.87625 14.63125 221.8125 18.5625 C221.78518799 19.75174072 221.75787598 20.94098145 221.72973633 22.16625977 C221.67215131 29.52166189 222.17342956 34.65950766 227.0625 40.4375 C231.38373761 42.73603064 235.21181198 42.8810266 240 42 C243.44911928 40.34244779 245.48669489 38.07549642 247.1484375 34.59375 C248.40986449 29.27029663 248.20776908 24.07237723 248.125 18.625 C248.08375 14.78875 248.0425 10.9525 248 7 C239.42 7 230.84 7 222 7 Z M47.5625 29.75 C46.38760407 34.44958372 46.29982163 38.42459866 48.25 42.8125 C51.39259795 46.76416063 51.39259795 46.76416063 56.08203125 48.3203125 C60.07906013 48.51916966 62.41645371 48.33522872 65.9375 46.3125 C69.35543725 42.48026732 70.01956954 40.23288078 69.9375 35.0625 C69.15871843 30.38981059 67.57784629 28.12109996 64 25 C57.61710772 22.49769213 51.90624352 24.46196441 47.5625 29.75 Z " fill="#000000" transform="translate(1964,215)"/>
<path d="M0 0 C5.1811456 3.75633056 6.9360468 7.32758759 8.203125 13.43359375 C8.54920705 16.20680388 8.5 19.01777869 8.5 21.8125 C34.24 21.8125 59.98 21.8125 86.5 21.8125 C86.5 24.1225 86.5 26.4325 86.5 28.8125 C82.54 28.8125 78.58 28.8125 74.5 28.8125 C74.5 48.6125 74.5 68.4125 74.5 88.8125 C71.53 88.8125 68.56 88.8125 65.5 88.8125 C65.17 83.5325 64.84 78.2525 64.5 72.8125 C62.85 74.1325 61.2 75.4525 59.5 76.8125 C52.90555076 80.2925959 42.96621864 79.97187239 35.8515625 78.125 C30.07005226 75.46683437 26.27442398 70.96017296 23.6875 65.1875 C21.84819481 59.87624793 22.25054185 54.35601455 22.5 48.8125 C23.33144531 48.63074219 24.16289063 48.44898438 25.01953125 48.26171875 C26.10621094 48.01035156 27.19289063 47.75898438 28.3125 47.5 C29.39144531 47.25636719 30.47039062 47.01273438 31.58203125 46.76171875 C34.47799703 45.81965759 35.669029 45.17877149 37.5 42.8125 C39.60818511 38.59612979 39.10851985 33.51026176 39.5 28.8125 C29.27 28.8125 19.04 28.8125 8.5 28.8125 C8.5 48.6125 8.5 68.4125 8.5 88.8125 C5.53 88.8125 2.56 88.8125 -0.5 88.8125 C-0.5 69.0125 -0.5 49.2125 -0.5 28.8125 C-6.44 28.8125 -12.38 28.8125 -18.5 28.8125 C-18.5 48.6125 -18.5 68.4125 -18.5 88.8125 C-21.47 88.8125 -24.44 88.8125 -27.5 88.8125 C-27.5 76.2725 -27.5 63.7325 -27.5 50.8125 C-42.01892724 50.71617894 -42.01892724 50.71617894 -53.875 56.8125 C-57.24422609 60.95923981 -56.97056538 65.72342257 -56.5 70.8125 C-54.73743809 76.00226563 -52.38916584 78.36791708 -47.5 80.8125 C-44.50346167 81.39516023 -41.54757374 81.67705228 -38.5 81.8125 C-38.5 84.1225 -38.5 86.4325 -38.5 88.8125 C-46.94269966 89.46528606 -53.51922212 88.92662299 -60.5 83.8125 C-66.53393832 77.5839185 -66.86112586 71.38186292 -66.77734375 63.078125 C-66.25337887 56.90862307 -64.01285128 53.35973427 -59.75 49 C-52.3758843 44.0366529 -46.16200356 43.39202197 -37.5 43.625 C-36.53449219 43.63853516 -35.56898438 43.65207031 -34.57421875 43.66601562 C-32.21590042 43.70104015 -29.85787336 43.75483462 -27.5 43.8125 C-27.5 38.8625 -27.5 33.9125 -27.5 28.8125 C-44.66 28.8125 -61.82 28.8125 -79.5 28.8125 C-79.5 33.4325 -79.5 38.0525 -79.5 42.8125 C-80.99779175 48.56717357 -82.8310292 52.09854595 -87.5 55.8125 C-93.215916 59.06272675 -98.11554841 59.15934143 -104.5 58.8125 C-104.38525534 61.35500021 -104.2585303 63.89597338 -104.125 66.4375 C-104.0940625 67.15035156 -104.063125 67.86320312 -104.03125 68.59765625 C-103.78979845 72.98402608 -103.10657269 76.6719834 -101.5 80.8125 C-95.39184648 82.05904606 -95.39184648 82.05904606 -89.5625 80.375 C-86.7859327 76.92532548 -86.29518806 74.14988942 -85.5 69.8125 C-82.53 69.8125 -79.56 69.8125 -76.5 69.8125 C-76.90073596 76.32445933 -77.56877343 80.53638012 -81.5 85.8125 C-86.80384962 90.21356671 -91.60741969 90.42935122 -98.40234375 90.1953125 C-104.21185489 89.47736535 -107.19394366 87.46225538 -110.875 82.8125 C-113.24238009 78.44195213 -113.62397551 75.11989526 -113.59765625 70.171875 C-113.59282227 68.56699219 -113.59282227 68.56699219 -113.58789062 66.9296875 C-113.57532227 65.26292969 -113.57532227 65.26292969 -113.5625 63.5625 C-113.55798828 62.43585938 -113.55347656 61.30921875 -113.54882812 60.1484375 C-113.53705397 57.36973783 -113.5206084 54.59114591 -113.5 51.8125 C-112.57058594 51.77511719 -111.64117188 51.73773438 -110.68359375 51.69921875 C-101.10096587 51.43072675 -101.10096587 51.43072675 -92.5 47.8125 C-88.52948041 41.59201931 -89.153826 36.65841199 -88.5 28.8125 C-101.7 28.8125 -114.9 28.8125 -128.5 28.8125 C-128.5 48.6125 -128.5 68.4125 -128.5 88.8125 C-131.47 88.8125 -134.44 88.8125 -137.5 88.8125 C-137.5 69.0125 -137.5 49.2125 -137.5 28.8125 C-143.44 28.8125 -149.38 28.8125 -155.5 28.8125 C-155.5 48.6125 -155.5 68.4125 -155.5 88.8125 C-158.47 88.8125 -161.44 88.8125 -164.5 88.8125 C-164.5 77.5925 -164.5 66.3725 -164.5 54.8125 C-168.79 54.8125 -173.08 54.8125 -177.5 54.8125 C-177.438125 56.648125 -177.37625 58.48375 -177.3125 60.375 C-177.32901857 67.39539286 -178.30322652 71.2862105 -183 76.6875 C-187.6437218 80.63466353 -192.4809368 80.14572501 -198.328125 80.09375 C-202.42436599 79.73053651 -204.52521134 78.6347354 -207.5 75.8125 C-208.263125 75.090625 -209.02625 74.36875 -209.8125 73.625 C-212.81528765 68.62035391 -212.77032416 63.80614066 -212 58.125 C-210.05849456 53.83750882 -207.39230291 51.39581017 -203.5 48.8125 C-199.93954823 47.62568274 -197.06191663 47.71560168 -193.3125 47.75 C-192.04019531 47.75902344 -190.76789062 47.76804688 -189.45703125 47.77734375 C-187.99330078 47.79474609 -187.99330078 47.79474609 -186.5 47.8125 C-186.5872605 45.56178094 -186.69544115 43.31186612 -186.8125 41.0625 C-186.87050781 39.80953125 -186.92851563 38.5565625 -186.98828125 37.265625 C-187.50867562 33.75395614 -187.94247745 32.22694437 -190.5 29.8125 C-194 29.0625 -194 29.0625 -197.5 29.8125 C-200.06110377 32.62145252 -200.47306037 34.33656656 -200.6875 38.125 C-200.625625 39.011875 -200.56375 39.89875 -200.5 40.8125 C-201.97906892 40.83939216 -203.45827483 40.85884621 -204.9375 40.875 C-205.76121094 40.88660156 -206.58492187 40.89820313 -207.43359375 40.91015625 C-209.5 40.8125 -209.5 40.8125 -210.5 39.8125 C-210.55853696 33.59587476 -209.84879865 28.50462486 -205.5 23.8125 C-200.26811619 20.73492129 -195.43400474 20.02202127 -189.5 20.8125 C-184.78457164 22.50293658 -182.22711042 24.62443758 -179.5 28.8125 C-176.91774327 35.23151408 -177.36022893 40.9637175 -177.5 47.8125 C-173.21 47.8125 -168.92 47.8125 -164.5 47.8125 C-164.5 39.2325 -164.5 30.6525 -164.5 21.8125 C-119.29 21.8125 -74.08 21.8125 -27.5 21.8125 C-27.5 18.8425 -27.5 15.8725 -27.5 12.8125 C-25.80308848 6.40194535 -23.94665036 3.55707212 -18.5 -0.1875 C-12.5892363 -2.15775457 -5.87151456 -1.99212101 0 0 Z M-15.4375 8.0625 C-19.18693423 13.06174564 -18.5 14.92607589 -18.5 21.8125 C-12.56 21.8125 -6.62 21.8125 -0.5 21.8125 C-0.68163236 13.63182139 -0.68163236 13.63182139 -4.5 6.8125 C-8.99363255 5.08717904 -11.57508069 5.10405116 -15.4375 8.0625 Z M48.5 28.8125 C48.4175 30.978125 48.335 33.14375 48.25 35.375 C47.79483856 41.38313096 47.47518907 45.22574338 43.5 49.8125 C39.71290168 51.88879415 35.66573113 52.78966423 31.5 53.8125 C31.52815965 60.02170272 32.49540208 63.94342853 36.90625 68.4375 C41.10853841 72.06300373 45.54725276 72.31593734 50.93359375 72.1875 C56.65496893 71.35149997 60.12247764 68.48694414 63.7109375 64.125 C66.99698134 58.07088194 65.90999589 50.56690339 65.75 43.875 C65.72990977 42.41343585 65.71166344 40.95184514 65.6953125 39.49023438 C65.65492178 35.92979212 65.57661733 32.37307754 65.5 28.8125 C59.89 28.8125 54.28 28.8125 48.5 28.8125 Z M-202.5 58.8125 C-203.92662219 61.66574437 -203.81033868 63.64704549 -203.5 66.8125 C-201.70006226 69.51240662 -200.416227 71.3543865 -197.5 72.8125 C-194.62762267 73.39692963 -194.62762267 73.39692963 -191.5 72.8125 C-188.78594725 70.68845872 -187.79212856 69.86662205 -186.5 66.8125 C-186.09426846 62.77572794 -186.20569624 58.85427168 -186.5 54.8125 C-195.40905996 54.02141032 -195.40905996 54.02141032 -202.5 58.8125 Z " fill="#000000" transform="translate(1141.5,193.1875)"/>
<path d="M0 0 C5.82581781 -0.04362372 9.51233484 0.5544348 14.20876884 4.02894592 C18.54827933 9.48115141 19.83800511 14.13202297 19.20876884 21.02894592 C18.50081087 25.19111646 17.3687633 28.01614773 14.14626884 30.82972717 C8.22636247 34.90939949 4.14720058 36.16958105 -3.04123116 36.09144592 C-4.65771553 36.07791077 -4.65771553 36.07791077 -6.30685616 36.06410217 C-7.12669991 36.05250061 -7.94654366 36.04089905 -8.79123116 36.02894592 C-6.08639113 44.31074664 -6.08639113 44.31074664 0.20876884 50.02894592 C7.04611491 52.30806128 14.01911182 51.71506435 20.45486259 48.58753967 C23.01917332 46.47590775 23.01917332 46.47590775 26.20876884 40.02894592 C26.53876884 27.15894592 26.86876884 14.28894592 27.20876884 1.02894592 C66.47876884 1.02894592 105.74876884 1.02894592 146.20876884 1.02894592 C146.20876884 3.33894592 146.20876884 5.64894592 146.20876884 8.02894592 C142.24876884 8.02894592 138.28876884 8.02894592 134.20876884 8.02894592 C134.20876884 27.82894592 134.20876884 47.62894592 134.20876884 68.02894592 C131.23876884 68.02894592 128.26876884 68.02894592 125.20876884 68.02894592 C125.20876884 55.15894592 125.20876884 42.28894592 125.20876884 29.02894592 C120.58876884 29.35894592 115.96876884 29.68894592 111.20876884 30.02894592 C111.72439384 31.14269592 112.24001884 32.25644592 112.77126884 33.40394592 C114.64675623 38.44096919 114.48578478 42.84269754 113.20876884 48.02894592 C110.94380758 52.47797698 108.71678014 54.88764056 104.20876884 57.02894592 C97.76220248 58.93361326 91.19438865 58.70956871 84.99783134 56.06800842 C80.73916823 53.5946364 78.67623162 50.15510624 76.83376884 45.71644592 C75.83064391 39.7980088 76.17617573 35.13384727 78.83376884 29.71644592 C82.46644693 25.60578388 86.73750543 23.00020763 92.20876884 22.02894592 C94.75512363 21.94595917 97.27270768 21.91255334 99.81814384 21.93128967 C100.54495354 21.93270462 101.27176323 21.93411957 102.02059746 21.93557739 C104.33336378 21.941158 106.64603196 21.95370688 108.95876884 21.96644592 C110.53038203 21.97146343 112.10199673 21.9760259 113.67361259 21.9801178 C117.51870228 21.99112108 121.36371894 22.00837231 125.20876884 22.02894592 C125.20876884 17.40894592 125.20876884 12.78894592 125.20876884 8.02894592 C104.74876884 8.02894592 84.28876884 8.02894592 63.20876884 8.02894592 C63.20876884 27.82894592 63.20876884 47.62894592 63.20876884 68.02894592 C60.23876884 68.02894592 57.26876884 68.02894592 54.20876884 68.02894592 C54.20876884 48.22894592 54.20876884 28.42894592 54.20876884 8.02894592 C48.26876884 8.02894592 42.32876884 8.02894592 36.20876884 8.02894592 C36.20876884 27.82894592 36.20876884 47.62894592 36.20876884 68.02894592 C33.23876884 68.02894592 30.26876884 68.02894592 27.20876884 68.02894592 C26.87876884 63.07894592 26.54876884 58.12894592 26.20876884 53.02894592 C25.11564384 53.83332092 24.02251884 54.63769592 22.89626884 55.46644592 C16.09365355 60.47214397 7.33799474 59.74930802 -0.79123116 59.02894592 C-7.25270841 57.4699267 -11.08928234 53.36663956 -14.79123116 48.02894592 C-15.78123116 44.72894592 -16.77123116 41.42894592 -17.79123116 38.02894592 C-29.67123116 37.69894592 -41.55123116 37.36894592 -53.79123116 37.02894592 C-53.68810616 39.89582092 -53.58498116 42.76269592 -53.47873116 45.71644592 C-53.45383614 46.61065247 -53.42894112 47.50485901 -53.4032917 48.42616272 C-53.19261246 52.99703086 -52.88815822 56.41230466 -49.79123116 60.02894592 C-47.14871548 61.2285817 -44.6648696 61.29834953 -41.79123116 61.02894592 C-38.68367118 59.47516594 -37.24366363 58.27254304 -36.04513741 54.97816467 C-35.53967314 53.01556896 -35.15669111 51.02236386 -34.79123116 49.02894592 C-31.82123116 49.02894592 -28.85123116 49.02894592 -25.79123116 49.02894592 C-26.04131896 55.35616733 -26.36835216 60.14050072 -30.79123116 65.02894592 C-36.90551747 69.97241145 -43.14551011 69.83687005 -50.79123116 69.02894592 C-55.59642171 67.42721574 -57.99556376 65.22244701 -60.79123116 61.02894592 C-62.60801876 57.23406715 -63.02954056 54.26411257 -62.98654366 50.07191467 C-62.98009834 48.96009827 -62.97365303 47.84828186 -62.96701241 46.70277405 C-62.94187569 44.97704163 -62.94187569 44.97704163 -62.91623116 43.21644592 C-62.90720772 42.0466217 -62.89818428 40.87679749 -62.88888741 39.67152405 C-62.86536848 36.79045539 -62.83249967 33.90980603 -62.79123116 31.02894592 C-61.76642647 30.90777405 -60.74162178 30.78660217 -59.68576241 30.66175842 C-58.32504136 30.49284133 -56.96436665 30.32355072 -55.60373116 30.15394592 C-54.930196 30.07531311 -54.25666084 29.9966803 -53.56271553 29.91566467 C-47.94173262 29.2101749 -47.94173262 29.2101749 -42.79123116 27.02894592 C-39.98639125 20.75222728 -39.98639125 20.75222728 -39.79123116 8.02894592 C-52.66123116 8.02894592 -65.53123116 8.02894592 -78.79123116 8.02894592 C-78.79123116 27.82894592 -78.79123116 47.62894592 -78.79123116 68.02894592 C-81.76123116 68.02894592 -84.73123116 68.02894592 -87.79123116 68.02894592 C-87.79123116 57.79894592 -87.79123116 47.56894592 -87.79123116 37.02894592 C-100.99123116 37.02894592 -114.19123116 37.02894592 -127.79123116 37.02894592 C-127.62686018 52.3886371 -127.62686018 52.3886371 -124.79123116 60.02894592 C-123.37689909 60.25257963 -121.95955498 60.45721068 -120.54123116 60.65394592 C-119.75232491 60.76996155 -118.96341866 60.88597717 -118.15060616 61.00550842 C-115.43321323 61.03250239 -114.06539541 60.47841325 -111.79123116 59.02894592 C-109.68762539 55.92889532 -109.29128868 52.6960344 -108.79123116 49.02894592 C-105.82123116 49.02894592 -102.85123116 49.02894592 -99.79123116 49.02894592 C-99.45513225 54.5185614 -100.1095513 58.20192218 -102.79123116 63.02894592 C-106.2643602 66.71084229 -109.55174646 68.84433975 -114.68185616 69.26722717 C-126.37230164 69.52550446 -126.37230164 69.52550446 -131.79123116 65.02894592 C-135.4176098 60.11938714 -136.92089247 55.53493508 -136.88888741 49.48597717 C-136.88566475 48.41283264 -136.88244209 47.33968811 -136.87912178 46.23402405 C-136.87074287 45.11447327 -136.86236397 43.99492249 -136.85373116 42.84144592 C-136.84696358 41.14471741 -136.84696358 41.14471741 -136.84005928 39.41371155 C-136.82826614 36.61873666 -136.81180766 33.82386772 -136.79123116 31.02894592 C-135.76642647 30.91937561 -134.74162178 30.8098053 -133.68576241 30.69691467 C-132.32501248 30.53737848 -130.96433921 30.37718753 -129.60373116 30.21644592 C-128.930196 30.14619202 -128.25666084 30.07593811 -127.56271553 30.0035553 C-123.29814296 29.48348547 -120.22472039 28.64042116 -116.79123116 26.02894592 C-113.18613836 19.84878685 -113.49099632 15.72636276 -112.79123116 8.02894592 C-124.01123116 8.02894592 -135.23123116 8.02894592 -146.79123116 8.02894592 C-146.79123116 5.71894592 -146.79123116 3.40894592 -146.79123116 1.02894592 C-128.17140178 0.89817976 -109.55156992 0.76777413 -90.93173504 0.63779449 C-82.28569673 0.57743067 -73.63965928 0.51695009 -64.99362373 0.45619202 C-57.45534184 0.40321873 -49.91705844 0.3504672 -42.37877315 0.29797888 C-38.38951914 0.27019444 -34.40026595 0.24230104 -30.41101456 0.21414185 C-26.65101429 0.18760439 -22.89101205 0.16136495 -19.13100815 0.13534737 C-17.10381742 0.12124444 -15.07662885 0.10683155 -13.04944038 0.09240723 C-10.67037608 0.07605294 -8.29130245 0.06097515 -5.91222 0.04751587 C-3.94145124 0.03578976 -1.97069768 0.02043674 0 0 Z M-103.79123116 8.02894592 C-104.32715057 13.02298829 -104.32715057 13.02298829 -104.83737373 18.01966858 C-104.911092 18.65437073 -104.98481026 19.28907288 -105.06076241 19.94300842 C-105.12884102 20.58190002 -105.19691963 21.22079163 -105.26706123 21.87904358 C-105.79123116 24.02894592 -105.79123116 24.02894592 -108.79123116 30.02894592 C-101.86123116 30.02894592 -94.93123116 30.02894592 -87.79123116 30.02894592 C-87.79123116 22.76894592 -87.79123116 15.50894592 -87.79123116 8.02894592 C-93.07123116 8.02894592 -98.35123116 8.02894592 -103.79123116 8.02894592 Z M-5.79123116 10.02894592 C-8.68663439 13.42789755 -7.93252293 17.79019261 -7.79123116 22.02894592 C-10.43123116 22.02894592 -13.07123116 22.02894592 -15.79123116 22.02894592 C-15.64989617 20.25774789 -15.50299907 18.48699305 -15.35373116 16.71644592 C-15.27252022 15.73031311 -15.19130928 14.7441803 -15.10763741 13.72816467 C-14.79123116 11.02894592 -14.79123116 11.02894592 -13.79123116 8.02894592 C-19.40123116 8.02894592 -25.01123116 8.02894592 -30.79123116 8.02894592 C-30.89435616 10.35957092 -30.99748116 12.69019592 -31.10373116 15.09144592 C-31.35981112 20.87885305 -32.30094952 24.89482641 -34.79123116 30.02894592 C-30.55949477 30.10392217 -26.32812527 30.15793133 -22.09591866 30.19374084 C-20.66062866 30.20869178 -19.22538325 30.22906016 -17.79025459 30.25526428 C-3.64039446 30.71285313 -3.64039446 30.71285313 8.83376884 24.90394592 C10.76157092 20.87308705 11.13775947 17.41187607 10.20876884 13.02894592 C8.10023898 10.21757278 6.41114482 8.67021311 3.33376884 7.02894592 C-0.20512351 7.02894592 -2.71647186 8.3776863 -5.79123116 10.02894592 Z M86.33376884 33.71644592 C84.67108176 37.1341916 84.55057145 40.35035381 85.20876884 44.02894592 C87.023941 47.12146145 88.49521027 48.61583306 91.58376884 50.40394592 C94.8994162 51.19338577 96.93519276 50.98373895 100.20876884 50.02894592 C103.81177581 47.56261409 103.81177581 47.56261409 106.20876884 44.02894592 C106.71257571 38.29643681 106.71257571 38.29643681 104.52126884 33.15394592 C98.41262532 27.54059782 92.40750722 28.25008138 86.33376884 33.71644592 Z " fill="#000000" transform="translate(1800.7912311553955,213.97105407714844)"/>
<path d="M0 0 C0.66 0.66 1.32 1.32 2 2 C2.33 0.35 2.66 -1.3 3 -3 C8.61 -3 14.22 -3 20 -3 C20.04534209 5.18912957 20.08196833 13.3781601 20.10362434 21.56738186 C20.1140227 25.37073399 20.12810896 29.17399514 20.15087891 32.97729492 C20.17274917 36.65369106 20.18459825 40.33000016 20.18975449 44.00645638 C20.19342496 45.40294831 20.20059186 46.79943596 20.21146011 48.19589043 C20.30734339 61.03676945 19.53134876 71.15763464 10.375 80.75 C1.95891746 87.0513816 -7.81195891 87.97984636 -18 87 C-27.03414819 85.30989691 -33.5937372 81.59799097 -39 74 C-42 67.568 -42 67.568 -42 64 C-39.26843041 63.83737072 -36.54657878 63.71889314 -33.8125 63.625 C-33.04357422 63.57472656 -32.27464844 63.52445312 -31.48242188 63.47265625 C-25.81126166 63.32661779 -25.81126166 63.32661779 -23.41699219 65.31396484 C-22.19782248 66.81423845 -21.09243931 68.4050793 -20 70 C-16.04741337 72.28833963 -12.51094661 72.39569707 -8 72 C-3.84242447 70.40093249 -1.2877886 68.85311765 1 65 C2.00496852 61.98509443 2.10335303 59.95818308 2.0625 56.8125 C2.05347656 55.91144531 2.04445313 55.01039062 2.03515625 54.08203125 C2.02355469 53.39496094 2.01195313 52.70789063 2 52 C1.44570312 52.34933594 0.89140625 52.69867188 0.3203125 53.05859375 C-0.40414062 53.51363281 -1.12859375 53.96867187 -1.875 54.4375 C-2.59429688 54.88996094 -3.31359375 55.34242187 -4.0546875 55.80859375 C-9.81312831 59.33534967 -17.40010621 58.65471763 -24 58 C-27.10049584 57.12129854 -29.41547267 55.89883641 -32 54 C-33.3303125 53.13375 -33.3303125 53.13375 -34.6875 52.25 C-40.70225115 46.39780969 -43.59614119 39.56454376 -44.3359375 31.203125 C-44.43214764 21.46665908 -43.79978563 12.74606817 -37.75 4.625 C-27.49159837 -5.16711065 -12.46041775 -7.97699641 0 0 Z M-23 14 C-26.74519096 18.78062611 -27.59464156 23.704552 -27.3203125 29.67578125 C-26.50968795 35.5577521 -23.35772489 39.18699072 -19 43 C-15.27200105 44.24266632 -11.87217006 44.52902513 -8 44 C-3.22321372 41.51974559 0.65065877 38.26090798 2.75 33.1875 C3.57398569 25.97762518 3.16821837 21.06408543 -1 15 C-4.61431892 11.56198932 -7.25342126 10.16794026 -12.25 9.6875 C-16.63465118 10.0528876 -19.71227922 11.11917535 -23 14 Z " fill="#000000" transform="translate(2063,62)"/>
<path d="M0 0 C1.03017628 0.96888433 2.03847705 1.96294956 3 3 C3.33 1.35 3.66 -0.3 4 -2 C9.61 -2 15.22 -2 21 -2 C21.09077477 6.54574641 21.16398679 15.09111091 21.20724869 23.6372118 C21.22802399 27.60655097 21.25615443 31.57554 21.30175781 35.54467773 C21.34557889 39.38320489 21.3692125 43.22139766 21.37950897 47.06015587 C21.38683596 48.51643822 21.40114185 49.97270461 21.42292023 51.42884254 C21.57306611 61.89479949 21.08954839 71.81814032 13.75 79.9375 C5.97421599 86.89565865 -2.24546066 88.38142387 -12.4453125 88.27734375 C-20.52607449 87.64686672 -28.72284435 85.51408951 -34.6328125 79.70703125 C-38.34761225 75.06883841 -40.25913675 70.98087608 -40 65 C-37.43493576 64.83723447 -34.88024578 64.71886016 -32.3125 64.625 C-31.59126953 64.57472656 -30.87003906 64.52445312 -30.12695312 64.47265625 C-24.79002082 64.32643893 -24.79002082 64.32643893 -22.46142578 66.31176758 C-21.24134079 67.82333502 -20.11600897 69.41004167 -19 71 C-14.0795728 73.57204149 -9.2918605 73.193074 -4 72 C-1.09020859 70.79721619 -0.12948372 70.18035232 1.75 67.5625 C3.46879304 62.66393985 3.24690013 58.1391805 3 53 C2.52949219 53.34933594 2.05898437 53.69867188 1.57421875 54.05859375 C0.95160156 54.51363281 0.32898437 54.96867187 -0.3125 55.4375 C-0.92738281 55.88996094 -1.54226563 56.34242187 -2.17578125 56.80859375 C-7.84428294 60.51072012 -15.50944718 59.46646684 -22 59 C-28.72707125 57.40926805 -33.86975581 53.48196047 -38 48 C-43.45653441 38.330822 -44.73958028 27.36474221 -41.75 16.625 C-38.79470499 8.06011724 -33.52447592 2.7700873 -25.9375 -1.875 C-17.77124175 -4.97891716 -7.64256473 -3.89338203 0 0 Z M-21 15 C-25.13464078 20.47560535 -26.88354902 25.11568054 -26 32 C-24.22953022 37.32103146 -21.74184576 40.88036463 -17 44 C-13.77065101 45.6146745 -10.50096198 45.44315974 -7 45 C-2.25074555 43.4137299 1.06452247 40.68345506 3.34375 36.125 C5.04542323 30.61482001 4.67928986 25.03786959 2.875 19.625 C0.2157355 15.9020297 -2.86087115 13.06956443 -7 11 C-13.07906109 10.49341158 -16.2048168 10.85870542 -21 15 Z " fill="#000000" transform="translate(1537,61)"/>
<path d="M0 0 C6.87365921 5.08159806 10.8555619 11.16834982 12.875 19.4296875 C13.88251006 29.70629012 13.21983853 39.35477461 7.45703125 48.3046875 C2.1297566 54.7697234 -3.07710159 58.1324215 -11.4375 58.98828125 C-19.01494778 59.23635246 -24.46014806 58.8520888 -30.8125 54.6171875 C-31.4725 53.9571875 -32.1325 53.2971875 -32.8125 52.6171875 C-33.1425 63.8371875 -33.4725 75.0571875 -33.8125 86.6171875 C-39.4225 86.6171875 -45.0325 86.6171875 -50.8125 86.6171875 C-50.8125 57.2471875 -50.8125 27.8771875 -50.8125 -2.3828125 C-45.2025 -2.3828125 -39.5925 -2.3828125 -33.8125 -2.3828125 C-33.4825 -0.7328125 -33.1525 0.9171875 -32.8125 2.6171875 C-32.35359375 2.26785156 -31.8946875 1.91851562 -31.421875 1.55859375 C-30.80828125 1.10355469 -30.1946875 0.64851563 -29.5625 0.1796875 C-28.95921875 -0.27277344 -28.3559375 -0.72523437 -27.734375 -1.19140625 C-19.83820461 -6.08638993 -7.66251748 -4.46139998 0 0 Z M-29.8125 14.6171875 C-33.95603441 19.71692216 -34.49849214 24.15652457 -34.26171875 30.671875 C-33.57351538 35.18409534 -31.94529302 38.31907559 -28.8125 41.6171875 C-24.92532414 44.38140145 -21.45193084 45.17054038 -16.765625 44.96484375 C-12.005795 44.11759401 -9.34550374 41.30865181 -6.5 37.6171875 C-3.80499862 32.82607394 -3.35174271 29.14627494 -3.8125 23.6171875 C-5.62587658 18.34459798 -8.04513584 14.67319017 -12.8125 11.6171875 C-19.3355694 9.44283103 -24.58737534 10.28447274 -29.8125 14.6171875 Z " fill="#000000" transform="translate(2146.8125,61.3828125)"/>
<path d="M0 0 C5.61 0 11.22 0 17 0 C17 26.4 17 52.8 17 80 C11.39 80 5.78 80 0 80 C-0.33 78.35 -0.66 76.7 -1 75 C-1.721875 75.61875 -2.44375 76.2375 -3.1875 76.875 C-10.10477487 82.10138546 -17.69725025 81.81064874 -26 81 C-33.42032748 78.89250937 -38.7688032 74.37626036 -43 68 C-47.75544002 58.6470497 -48.15059449 48.50686996 -45.5 38.5 C-42.83600567 30.50801701 -38.38519912 24.46531629 -30.875 20.4375 C-23.26506229 17.58048186 -14.26432097 17.64142027 -6.8125 20.875 C-4.40532738 22.11770862 -2.26279572 23.49146952 0 25 C0 16.75 0 8.5 0 0 Z M-26.25 38.3125 C-29.82743931 43.80642465 -30.37051574 48.20674158 -29.53515625 54.6015625 C-28.44684483 59.47910419 -25.94606872 62.18294065 -22.25 65.375 C-18.35216903 67.32391549 -15.2326989 67.79414273 -11 67 C-6.30062992 65.38905975 -2.91498948 62.7343809 -0.6640625 58.18359375 C0.99395122 52.73165452 1.09246143 46.9101313 -0.91796875 41.5546875 C-3.43776777 37.13484586 -6.04642025 34.58514552 -11 33 C-17.42966139 32.31110771 -21.71730984 33.65390178 -26.25 38.3125 Z " fill="#000000" transform="translate(151,39)"/>
<path d="M0 0 C5.28 0 10.56 0 16 0 C16.495 15.345 16.495 15.345 17 31 C18.52625 29.040625 20.0525 27.08125 21.625 25.0625 C22.64882284 23.78962666 23.67345677 22.51740492 24.69921875 21.24609375 C27.00783881 18.34713537 29.10462705 15.37828219 31.14453125 12.28515625 C39.0286281 0.85724558 39.0286281 0.85724558 44.57763672 -0.74365234 C50.48128563 -1.45016999 56.1467138 -0.90095854 62 0 C59.59904813 4.36091259 56.64006003 7.90774406 53.375 11.625 C52.29595515 12.86899438 51.21783941 14.11379525 50.140625 15.359375 C49.34301758 16.28073242 49.34301758 16.28073242 48.52929688 17.22070312 C42.75505628 23.93888088 37.22641647 30.84698295 32 38 C36.73816257 43.83788426 41.51387669 49.63929221 46.375 55.375 C46.82762207 55.90923584 47.28024414 56.44347168 47.74658203 56.99389648 C50.20666114 59.89423211 52.67343155 62.78873706 55.14453125 65.6796875 C55.65387207 66.2773291 56.16321289 66.8749707 56.68798828 67.49072266 C57.67254303 68.64583525 58.65913463 69.79921545 59.64794922 70.95068359 C63 74.88740868 63 74.88740868 63 76 C44.6999373 78.20365979 44.6999373 78.20365979 39.07177734 74.8515625 C35.7797464 71.73572476 33.5679593 67.912632 31.2890625 64.02832031 C29.02277934 60.46235809 26.18231608 57.39488901 23.375 54.25 C18.13819569 48.27639138 18.13819569 48.27639138 17 46 C16.67 55.9 16.34 65.8 16 76 C10.72 76 5.44 76 0 76 C0 50.92 0 25.84 0 0 Z " fill="#000000" transform="translate(1690,43)"/>
<path d="M0 0 C0.495 0.495 0.495 0.495 1 1 C1.33 -0.65 1.66 -2.3 2 -4 C7.28 -4 12.56 -4 18 -4 C18 15.8 18 35.6 18 56 C12.72 56 7.44 56 2 56 C1.67 54.35 1.34 52.7 1 51 C0.45730469 51.34933594 -0.08539062 51.69867188 -0.64453125 52.05859375 C-1.35996094 52.51363281 -2.07539062 52.96867187 -2.8125 53.4375 C-3.87404297 54.11619141 -3.87404297 54.11619141 -4.95703125 54.80859375 C-10.97104241 58.31580867 -18.28511773 57.58890601 -25 57 C-33.05071393 54.6623578 -37.96962814 49.9432941 -42.25 42.9609375 C-46.54328536 34.28492334 -46.36954059 23.17832074 -44.3046875 13.86328125 C-41.23120083 5.43056362 -36.01298042 -0.14189832 -28 -4 C-18.27891501 -7.12765343 -8.37405238 -5.56445746 0 0 Z M-24 13 C-28.14353441 18.09973466 -28.68599214 22.53933707 -28.44921875 29.0546875 C-27.76101538 33.56690784 -26.13279302 36.70188809 -23 40 C-19.11282414 42.76421395 -15.63943084 43.55335288 -10.953125 43.34765625 C-6.35976628 42.5300384 -3.66477795 39.75461281 -0.6875 36.375 C2.16869613 30.66260773 2.89088347 24.83833249 0.9375 18.6875 C-0.86376564 14.58692292 -3.33854574 12.5172498 -7 10 C-13.5230694 7.82564353 -18.77487534 8.66728524 -24 13 Z " fill="#000000" transform="translate(1991,63)"/>
<path d="M0 0 C0.495 0.495 0.495 0.495 1 1 C1.33 -0.65 1.66 -2.3 2 -4 C7.28 -4 12.56 -4 18 -4 C18 15.8 18 35.6 18 56 C12.72 56 7.44 56 2 56 C1.67 54.35 1.34 52.7 1 51 C0.45730469 51.34933594 -0.08539062 51.69867188 -0.64453125 52.05859375 C-1.35996094 52.51363281 -2.07539062 52.96867187 -2.8125 53.4375 C-3.87404297 54.11619141 -3.87404297 54.11619141 -4.95703125 54.80859375 C-10.97104241 58.31580867 -18.28511773 57.58890601 -25 57 C-33.05071393 54.6623578 -37.96962814 49.9432941 -42.25 42.9609375 C-46.54328536 34.28492334 -46.36954059 23.17832074 -44.3046875 13.86328125 C-41.23120083 5.43056362 -36.01298042 -0.14189832 -28 -4 C-18.27891501 -7.12765343 -8.37405238 -5.56445746 0 0 Z M-24 13 C-28.14353441 18.09973466 -28.68599214 22.53933707 -28.44921875 29.0546875 C-27.76101538 33.56690784 -26.13279302 36.70188809 -23 40 C-19.11282414 42.76421395 -15.63943084 43.55335288 -10.953125 43.34765625 C-6.35976628 42.5300384 -3.66477795 39.75461281 -0.6875 36.375 C2.16869613 30.66260773 2.89088347 24.83833249 0.9375 18.6875 C-0.86376564 14.58692292 -3.33854574 12.5172498 -7 10 C-13.5230694 7.82564353 -18.77487534 8.66728524 -24 13 Z " fill="#000000" transform="translate(1874,63)"/>
<path d="M0 0 C0.495 0.495 0.495 0.495 1 1 C1.33 -0.65 1.66 -2.3 2 -4 C7.28 -4 12.56 -4 18 -4 C18 15.8 18 35.6 18 56 C12.72 56 7.44 56 2 56 C1.67 54.35 1.34 52.7 1 51 C0.45730469 51.34933594 -0.08539063 51.69867188 -0.64453125 52.05859375 C-1.35996094 52.51363281 -2.07539063 52.96867187 -2.8125 53.4375 C-3.87404297 54.11619141 -3.87404297 54.11619141 -4.95703125 54.80859375 C-10.97104241 58.31580867 -18.28511773 57.58890601 -25 57 C-33.05071393 54.6623578 -37.96962814 49.9432941 -42.25 42.9609375 C-46.54328536 34.28492334 -46.36954059 23.17832074 -44.3046875 13.86328125 C-41.23120083 5.43056362 -36.01298042 -0.14189832 -28 -4 C-18.27891501 -7.12765343 -8.37405238 -5.56445746 0 0 Z M-24 13 C-28.14353441 18.09973466 -28.68599214 22.53933707 -28.44921875 29.0546875 C-27.76101538 33.56690784 -26.13279302 36.70188809 -23 40 C-19.11282414 42.76421395 -15.63943084 43.55335288 -10.953125 43.34765625 C-6.35976628 42.5300384 -3.66477795 39.75461281 -0.6875 36.375 C2.16869613 30.66260773 2.89088347 24.83833249 0.9375 18.6875 C-0.86376564 14.58692292 -3.33854574 12.5172498 -7 10 C-13.5230694 7.82564353 -18.77487534 8.66728524 -24 13 Z " fill="#000000" transform="translate(253,63)"/>
<path d="M0 0 C5.61 0 11.22 0 17 0 C17.33 7.92 17.66 15.84 18 24 C20.31 22.68 22.62 21.36 25 20 C31.7306107 17.7564631 40.69015327 17.87052421 47.22265625 20.83984375 C53.18896805 24.73433739 56.52887616 29.86251499 58.4309082 36.63549805 C59.7665954 44.53215409 59.2989284 52.64280178 59.1875 60.625 C59.17242856 62.50649973 59.1587445 64.3880111 59.14648438 66.26953125 C59.11623757 70.84688083 59.05748375 75.42259047 59 80 C53.39 80 47.78 80 42 80 C41.94392578 75.98972656 41.94392578 75.98972656 41.88671875 71.8984375 C41.84045104 69.29695656 41.78923653 66.69561652 41.73754883 64.09423828 C41.70438227 62.29224271 41.67632475 60.49014533 41.65356445 58.68798828 C41.61986568 56.09103177 41.56754351 53.49500134 41.51171875 50.8984375 C41.50532883 50.0982016 41.4989389 49.2979657 41.49235535 48.47348022 C41.36575302 43.61041794 40.65377432 40.22824095 38 36 C35.2128857 34.01246767 32.87976099 33.72685095 29.5 33.75 C28.7471875 33.74484375 27.994375 33.7396875 27.21875 33.734375 C24.59021441 34.04905884 23.16660935 34.4549589 21 36 C17.84726213 41.02323625 17.534141 45.15523621 17.48828125 50.8984375 C17.47033005 51.73339752 17.45237885 52.56835754 17.43388367 53.42861938 C17.38000078 56.07736261 17.34595639 58.72592794 17.3125 61.375 C17.27930741 63.17841005 17.24481596 64.9817967 17.20898438 66.78515625 C17.12185755 71.19012663 17.06160327 75.59430399 17 80 C11.39 80 5.78 80 0 80 C0 53.6 0 27.2 0 0 Z " fill="#000000" transform="translate(1761,39)"/>
<path d="M0 0 C5.61 0 11.22 0 17 0 C17.33 7.92 17.66 15.84 18 24 C20.31 22.68 22.62 21.36 25 20 C31.7306107 17.7564631 40.69015327 17.87052421 47.22265625 20.83984375 C53.18896805 24.73433739 56.52887616 29.86251499 58.4309082 36.63549805 C59.7665954 44.53215409 59.2989284 52.64280178 59.1875 60.625 C59.17242856 62.50649973 59.1587445 64.3880111 59.14648438 66.26953125 C59.11623757 70.84688083 59.05748375 75.42259047 59 80 C53.39 80 47.78 80 42 80 C41.94392578 75.98972656 41.94392578 75.98972656 41.88671875 71.8984375 C41.84045104 69.29695656 41.78923653 66.69561652 41.73754883 64.09423828 C41.70438227 62.29224271 41.67632475 60.49014533 41.65356445 58.68798828 C41.61986568 56.09103177 41.56754351 53.49500134 41.51171875 50.8984375 C41.50532883 50.0982016 41.4989389 49.2979657 41.49235535 48.47348022 C41.36575302 43.61041794 40.65377432 40.22824095 38 36 C35.2128857 34.01246767 32.87976099 33.72685095 29.5 33.75 C28.7471875 33.74484375 27.994375 33.7396875 27.21875 33.734375 C24.59021441 34.04905884 23.16660935 34.4549589 21 36 C17.84726213 41.02323625 17.534141 45.15523621 17.48828125 50.8984375 C17.47033005 51.73339752 17.45237885 52.56835754 17.43388367 53.42861938 C17.38000078 56.07736261 17.34595639 58.72592794 17.3125 61.375 C17.27930741 63.17841005 17.24481596 64.9817967 17.20898438 66.78515625 C17.12185755 71.19012663 17.06160327 75.59430399 17 80 C11.39 80 5.78 80 0 80 C0 53.6 0 27.2 0 0 Z " fill="#000000" transform="translate(1187,39)"/>
<path d="M0 0 C8.75368646 9.00379179 9.1875 17.45231004 9.1875 30.25 C-5.3325 30.25 -19.8525 30.25 -34.8125 30.25 C-31.24791141 38.19108616 -31.24791141 38.19108616 -24.8125 42.25 C-19.81092599 42.86422839 -16.8158559 42.33830312 -12.8125 39.25 C-12.1525 38.26 -11.4925 37.27 -10.8125 36.25 C-8.84130859 35.90942383 -8.84130859 35.90942383 -6.4609375 35.95703125 C-5.18476562 35.9715332 -5.18476562 35.9715332 -3.8828125 35.98632812 C-2.99335937 36.01146484 -2.10390625 36.03660156 -1.1875 36.0625 C0.15828125 36.08280273 0.15828125 36.08280273 1.53125 36.10351562 C3.75059789 36.13893075 5.96875188 36.18831539 8.1875 36.25 C5.32136934 44.65497211 1.24096955 50.31754852 -6.6875 54.75 C-14.85915676 57.89403432 -25.15197053 57.67279379 -33.43359375 55.14453125 C-40.94288333 51.64769603 -46.15618189 47.16804315 -49.625 39.625 C-53.10262557 29.74122207 -53.09401923 18.88748815 -48.8125 9.25 C-44.92409889 2.0635161 -38.69249517 -2.68948887 -30.984375 -5.390625 C-19.71795201 -7.25485326 -9.73033734 -6.05443212 0 0 Z M-32.625 13.25 C-34.06931226 15.46479091 -34.06931226 15.46479091 -34.8125 19.25 C-25.9025 19.25 -16.9925 19.25 -7.8125 19.25 C-8.98454934 13.38975332 -10.8836356 11.30020508 -15.6875 7.9375 C-22.82184413 5.62932984 -27.75561084 7.87688093 -32.625 13.25 Z " fill="#000000" transform="translate(816.8125,63.75)"/>
<path d="M0 0 C8.16180613 4.83662585 12.51939328 11.13468569 14.921875 20.375 C15.57091346 30.32692308 15.57091346 30.32692308 14.109375 33.25 C-0.080625 33.25 -14.270625 33.25 -28.890625 33.25 C-26.75931705 40.51271708 -26.75931705 40.51271708 -21.890625 44.25 C-17.32464171 45.77199443 -13.49169786 45.99716734 -9.078125 43.9375 C-6.67023982 42.26607792 -6.67023982 42.26607792 -4.890625 39.25 C-3.01123047 38.90942383 -3.01123047 38.90942383 -0.7578125 38.95703125 C0.04785156 38.96669922 0.85351562 38.97636719 1.68359375 38.98632812 C2.52535156 39.01146484 3.36710937 39.03660156 4.234375 39.0625 C5.08386719 39.07603516 5.93335938 39.08957031 6.80859375 39.10351562 C8.90912337 39.13891781 11.00932793 39.19272599 13.109375 39.25 C12.08757133 46.09370831 8.07890529 51.01677502 2.609375 55.125 C-5.10541125 60.53291389 -14.8822846 60.10367453 -23.890625 59.25 C-31.13305668 57.71900495 -36.43135412 54.13244243 -40.890625 48.25 C-46.66990986 38.66484463 -47.67449986 27.24519818 -45.2421875 16.34375 C-42.02547526 8.53566216 -36.38364262 2.37388586 -28.6875 -1.05859375 C-19.94159431 -4.42386616 -8.46259218 -4.08930629 0 0 Z M-24.890625 13.25 C-28.16066466 17.29002253 -28.16066466 17.29002253 -28.890625 22.25 C-20.310625 22.25 -11.730625 22.25 -2.890625 22.25 C-3.79475125 16.06098909 -3.79475125 16.06098909 -8.015625 12.23046875 C-13.76219769 9.22549012 -19.62762306 9.45574278 -24.890625 13.25 Z " fill="#000000" transform="translate(1097.890625,60.75)"/>
<path d="M0 0 C6.27 0 12.54 0 19 0 C23.62 12.21 28.24 24.42 33 37 C35.30378504 31.81648366 37.53576343 26.77978824 39.54296875 21.50390625 C40.19362305 19.80137695 40.19362305 19.80137695 40.85742188 18.06445312 C41.29634766 16.90880859 41.73527344 15.75316406 42.1875 14.5625 C43.07595792 12.23013907 43.96523766 9.89809097 44.85546875 7.56640625 C45.24371826 6.54490479 45.63196777 5.52340332 46.03198242 4.47094727 C47 2 47 2 48 0 C53.94 0 59.88 0 66 0 C61.78046437 11.19639158 57.19809372 22.22094042 52.5625 33.25 C51.7676522 35.14490095 50.97289412 37.03983954 50.17822266 38.93481445 C43.16686132 55.64359402 36.09793549 72.32783962 29 89 C23.06 89 17.12 89 11 89 C12.52057276 84.11031504 14.17312684 79.47274671 16.3671875 74.84375 C16.77710938 73.96589844 17.18703125 73.08804688 17.609375 72.18359375 C18.4574377 70.38538674 19.32491792 68.5962175 20.2109375 66.81640625 C20.81421875 65.49962891 20.81421875 65.49962891 21.4296875 64.15625 C21.80335449 63.38087891 22.17702148 62.60550781 22.56201172 61.80664062 C23.24488212 57.43078883 21.61579384 54.04140153 20 50 C19.69851044 49.23635132 19.39702087 48.47270264 19.08639526 47.68591309 C18.11129848 45.27025399 17.10661972 42.86880318 16.09375 40.46875 C15.7277771 39.59279175 15.3618042 38.7168335 14.98474121 37.81433105 C13.82621364 35.04159747 12.66363897 32.270592 11.5 29.5 C9.96503513 25.84529138 8.43437393 22.18882346 6.90625 18.53125 C6.55929077 17.70911011 6.21233154 16.88697021 5.8548584 16.03991699 C5.52441528 15.24879517 5.19397217 14.45767334 4.85351562 13.64257812 C4.5672229 12.96134888 4.28093018 12.28011963 3.98596191 11.57824707 C2.52801954 7.76579184 1.29075214 3.87225642 0 0 Z " fill="#000000" transform="translate(1564,59)"/>
<path d="M0 0 C7.59184091 4.5932682 12.05095375 9.97459207 15.17578125 18.31640625 C17.43883248 27.58482624 16.78954037 37.29347438 11.81640625 45.58203125 C9.04719451 49.43608883 6.17826824 52.71013565 2.17578125 55.31640625 C1.62148438 55.68765625 1.0671875 56.05890625 0.49609375 56.44140625 C-7.6577419 61.01009237 -18.77303939 60.70210992 -27.70703125 58.65625 C-35.49049254 55.52388143 -41.67546168 49.82331084 -45.1328125 42.2109375 C-48.15383934 33.93298259 -48.26512243 22.96653856 -45.13671875 14.69140625 C-41.21355956 6.53068835 -35.42155163 1.57428665 -27.0546875 -1.80078125 C-18.50302195 -4.13775394 -8.01894138 -3.86795996 0 0 Z M-27.63671875 17.37890625 C-30.93937458 22.76744997 -30.36438014 29.22458613 -29.82421875 35.31640625 C-28.34917882 38.90836237 -28.34917882 38.90836237 -25.82421875 41.31640625 C-25.10234375 42.10015625 -24.38046875 42.88390625 -23.63671875 43.69140625 C-19.66869035 45.98404488 -16.30515259 45.99385162 -11.82421875 45.31640625 C-7.10259583 43.21790717 -3.6846972 40.25248276 -1.57421875 35.50390625 C-0.00947533 28.8537467 -0.64369632 23.31288529 -3.82421875 17.31640625 C-7.58811072 12.89383319 -9.81540403 11.48106319 -15.63671875 11.00390625 C-20.93133419 11.07203549 -24.18646811 13.45275897 -27.63671875 17.37890625 Z " fill="#000000" transform="translate(904.82421875,60.68359375)"/>
<path d="M0 0 C6.26157432 4.05523219 10.20710913 9.74694394 12.61328125 16.796875 C14.46726162 27.35894496 13.61680815 37.59010507 7.90234375 46.76171875 C3.53101316 52.64449247 -3.05764319 56.12099085 -10 58 C-12.80004102 58.23794815 -15.45326734 58.38125108 -18.25 58.375 C-18.99926758 58.37338867 -19.74853516 58.37177734 -20.52050781 58.37011719 C-27.96127484 58.20619532 -33.38825956 56.13421026 -39.75 52.375 C-47.27640121 44.43046539 -50.52774759 35.38037829 -50.24609375 24.578125 C-49.33878348 15.07296977 -45.4052736 8.4052736 -38.75 1.75 C-27.19562636 -5.60278322 -12.11880657 -7.20395724 0 0 Z M-30 15 C-33.1533172 20.16201392 -33.92039334 26.07432154 -33 32 C-31.61067967 36.43483608 -29.71586433 39.33407969 -26.3125 42.5 C-22.02199729 44.44286915 -18.63286396 44.80680037 -14 44 C-9.72592828 41.98392844 -6.88009492 39.44690775 -4.6953125 35.1875 C-2.84660981 29.37135671 -2.80627295 22.49533341 -5.625 17 C-8.66290828 13.16264218 -11.19084668 10.54337637 -16.140625 9.5859375 C-21.95161447 9.21039736 -26.08086025 10.62415833 -30 15 Z " fill="#000000" transform="translate(1475,62)"/>
<path d="M0 0 C6.26157432 4.05523219 10.20710913 9.74694394 12.61328125 16.796875 C14.46726162 27.35894496 13.61680815 37.59010507 7.90234375 46.76171875 C3.53101316 52.64449247 -3.05764319 56.12099085 -10 58 C-12.80004102 58.23794815 -15.45326734 58.38125108 -18.25 58.375 C-18.99926758 58.37338867 -19.74853516 58.37177734 -20.52050781 58.37011719 C-27.96127484 58.20619532 -33.38825956 56.13421026 -39.75 52.375 C-47.27640121 44.43046539 -50.52774759 35.38037829 -50.24609375 24.578125 C-49.33878348 15.07296977 -45.4052736 8.4052736 -38.75 1.75 C-27.19562636 -5.60278322 -12.11880657 -7.20395724 0 0 Z M-30 15 C-33.1533172 20.16201392 -33.92039334 26.07432154 -33 32 C-31.61067967 36.43483608 -29.71586433 39.33407969 -26.3125 42.5 C-22.02199729 44.44286915 -18.63286396 44.80680037 -14 44 C-9.72592828 41.98392844 -6.88009492 39.44690775 -4.6953125 35.1875 C-2.84660981 29.37135671 -2.80627295 22.49533341 -5.625 17 C-8.66290828 13.16264218 -11.19084668 10.54337637 -16.140625 9.5859375 C-21.95161447 9.21039736 -26.08086025 10.62415833 -30 15 Z " fill="#000000" transform="translate(1376,62)"/>
<path d="M0 0 C5.61 0 11.22 0 17 0 C17.03738281 2.67351563 17.07476563 5.34703125 17.11328125 8.1015625 C17.15954896 10.70304344 17.21076347 13.30438348 17.26245117 15.90576172 C17.29561773 17.70775729 17.32367525 19.50985467 17.34643555 21.31201172 C17.38013432 23.90896823 17.43245649 26.50499866 17.48828125 29.1015625 C17.49467117 29.9017984 17.5010611 30.7020343 17.50764465 31.52651978 C17.63400371 36.38023751 18.29841971 39.80798882 21 44 C24.22747055 46.15164703 25.20505639 46.27245079 28.9375 46.25 C29.79214844 46.25515625 30.64679687 46.2603125 31.52734375 46.265625 C34.33335371 45.96418949 35.74320862 45.71497299 38 44 C40.80719687 38.61521525 41.46198908 34.24010335 41.51171875 28.22265625 C41.52966995 27.41130722 41.54762115 26.59995819 41.56611633 25.76402283 C41.61988463 23.19689992 41.65400616 20.6299593 41.6875 18.0625 C41.72070276 16.31182377 41.75519513 14.5611715 41.79101562 12.81054688 C41.87799751 8.54034324 41.93834875 4.27094336 42 0 C47.61 0 53.22 0 59 0 C59 19.8 59 39.6 59 60 C53.39 60 47.78 60 42 60 C41.505 58.02 41.505 58.02 41 56 C40.0925 56.639375 39.185 57.27875 38.25 57.9375 C31.96466358 61.92627119 25.28351119 61.59841054 18 61 C11.25217908 59.34299072 6.71144726 55.80891671 3 50 C0.17445684 43.75310936 -0.41644632 37.93373195 -0.29296875 31.15234375 C-0.28872391 30.25504044 -0.28447906 29.35773712 -0.28010559 28.4332428 C-0.26347363 25.60100757 -0.22585197 22.76951576 -0.1875 19.9375 C-0.17243309 18.00326557 -0.15874822 16.06901986 -0.14648438 14.13476562 C-0.11362112 9.42289589 -0.06194841 4.71157345 0 0 Z " fill="#000000" transform="translate(655,59)"/>
<path d="M0 0 C5.61 0 11.22 0 17 0 C17.03738281 2.60132813 17.07476563 5.20265625 17.11328125 7.8828125 C17.15955255 10.41479686 17.21076572 12.94663667 17.26245117 15.47851562 C17.2956122 17.23200627 17.32367142 18.98560138 17.34643555 20.73925781 C17.3801447 23.26672698 17.43246692 25.79324638 17.48828125 28.3203125 C17.49467117 29.09867462 17.5010611 29.87703674 17.50764465 30.6789856 C17.65846141 36.31963197 18.69350415 40.73666103 22.87890625 44.84375 C26.74796405 46.95284965 30.73549914 46.75905355 35 46 C37.82424288 43.80977082 39.41508603 42.16982793 41 39 C41.15720097 36.0851463 41.25855654 33.19060364 41.31640625 30.2734375 C41.33718735 29.41062164 41.35796844 28.54780579 41.37937927 27.65884399 C41.44486034 24.89764507 41.50375298 22.13634962 41.5625 19.375 C41.6056866 17.50519828 41.64930093 15.63540638 41.69335938 13.765625 C41.80134674 9.1771809 41.90043062 4.58866547 42 0 C47.61 0 53.22 0 59 0 C59 19.8 59 39.6 59 60 C53.39 60 47.78 60 42 60 C41.505 58.02 41.505 58.02 41 56 C40.071875 56.639375 39.14375 57.27875 38.1875 57.9375 C31.86144981 62.03082659 25.33103685 61.6664579 18 61 C11.15568093 59.13171051 7.01050619 55.62934516 3.15625 49.76953125 C-1.0807116 39.62086309 -0.2338536 28.65356021 -0.125 17.875 C-0.11495032 16.13802599 -0.10582798 14.40104636 -0.09765625 12.6640625 C-0.07751499 8.44245347 -0.0383398 4.22163817 0 0 Z " fill="#000000" transform="translate(2168,59)"/>
<path d="M0 0 C6.38435248 3.95689538 9.80962957 8.85286988 11.77734375 16.1015625 C12.15308266 19.50683448 12.12924137 22.8665504 12.0703125 26.2890625 C12.06606766 27.23217285 12.06182281 28.1752832 12.05744934 29.14697266 C12.04077945 32.13213768 12.0031495 35.11660468 11.96484375 38.1015625 C11.94978179 40.13670894 11.93609604 42.17186605 11.92382812 44.20703125 C11.8909143 49.1721402 11.83921374 54.13673337 11.77734375 59.1015625 C6.49734375 59.1015625 1.21734375 59.1015625 -4.22265625 59.1015625 C-4.27164062 56.65621094 -4.320625 54.21085937 -4.37109375 51.69140625 C-4.42521016 49.30503585 -4.48247558 46.91876016 -4.54003906 44.5324707 C-4.57815924 42.88280385 -4.61304075 41.23305868 -4.64453125 39.58325195 C-4.69055285 37.20235329 -4.7484826 34.82198598 -4.80859375 32.44140625 C-4.82014496 31.71195297 -4.83169617 30.98249969 -4.84359741 30.23094177 C-5.0045471 24.55915795 -5.50911306 19.18994326 -9.22265625 14.6640625 C-13.57034249 12.39964258 -17.41848458 12.32720588 -22.22265625 13.1015625 C-25.62142781 14.94256376 -26.83382927 16.17483806 -28.32177734 19.72119141 C-29.38076614 23.69483881 -29.57437049 27.47931395 -29.63671875 31.5625 C-29.6560849 32.35306793 -29.67545105 33.14363586 -29.69540405 33.9581604 C-29.75481678 36.46418733 -29.80143052 38.97026115 -29.84765625 41.4765625 C-29.88587138 43.18361293 -29.92492514 44.89064481 -29.96484375 46.59765625 C-30.0620535 50.76552423 -30.14192369 54.933213 -30.22265625 59.1015625 C-35.50265625 59.1015625 -40.78265625 59.1015625 -46.22265625 59.1015625 C-46.22265625 39.3015625 -46.22265625 19.5015625 -46.22265625 -0.8984375 C-40.94265625 -0.8984375 -35.66265625 -0.8984375 -30.22265625 -0.8984375 C-29.89265625 0.4215625 -29.56265625 1.7415625 -29.22265625 3.1015625 C-28.65160156 2.740625 -28.08054687 2.3796875 -27.4921875 2.0078125 C-19.0225915 -2.83965103 -9.13661381 -4.13368997 0 0 Z " fill="#000000" transform="translate(1305.22265625,59.8984375)"/>
<path d="M0 0 C6.38435248 3.95689538 9.80962957 8.85286988 11.77734375 16.1015625 C12.15308266 19.50683448 12.12924137 22.8665504 12.0703125 26.2890625 C12.06606766 27.23217285 12.06182281 28.1752832 12.05744934 29.14697266 C12.04077945 32.13213768 12.0031495 35.11660468 11.96484375 38.1015625 C11.94978179 40.13670894 11.93609604 42.17186605 11.92382812 44.20703125 C11.8909143 49.1721402 11.83921374 54.13673337 11.77734375 59.1015625 C6.49734375 59.1015625 1.21734375 59.1015625 -4.22265625 59.1015625 C-4.27164063 56.65621094 -4.320625 54.21085937 -4.37109375 51.69140625 C-4.42521016 49.30503585 -4.48247558 46.91876016 -4.54003906 44.5324707 C-4.57815924 42.88280385 -4.61304075 41.23305868 -4.64453125 39.58325195 C-4.69055285 37.20235329 -4.7484826 34.82198598 -4.80859375 32.44140625 C-4.82014496 31.71195297 -4.83169617 30.98249969 -4.84359741 30.23094177 C-5.0045471 24.55915795 -5.50911306 19.18994326 -9.22265625 14.6640625 C-13.57034249 12.39964258 -17.41848458 12.32720588 -22.22265625 13.1015625 C-25.62142781 14.94256376 -26.83382927 16.17483806 -28.32177734 19.72119141 C-29.38076614 23.69483881 -29.57437049 27.47931395 -29.63671875 31.5625 C-29.6560849 32.35306793 -29.67545105 33.14363586 -29.69540405 33.9581604 C-29.75481678 36.46418733 -29.80143052 38.97026115 -29.84765625 41.4765625 C-29.88587138 43.18361293 -29.92492514 44.89064481 -29.96484375 46.59765625 C-30.0620535 50.76552423 -30.14192369 54.933213 -30.22265625 59.1015625 C-35.50265625 59.1015625 -40.78265625 59.1015625 -46.22265625 59.1015625 C-46.22265625 39.3015625 -46.22265625 19.5015625 -46.22265625 -0.8984375 C-40.94265625 -0.8984375 -35.66265625 -0.8984375 -30.22265625 -0.8984375 C-29.89265625 0.4215625 -29.56265625 1.7415625 -29.22265625 3.1015625 C-28.65160156 2.740625 -28.08054687 2.3796875 -27.4921875 2.0078125 C-19.0225915 -2.83965103 -9.13661381 -4.13368997 0 0 Z " fill="#000000" transform="translate(458.22265625,59.8984375)"/>
<path d="M0 0 C6.38435248 3.95689538 9.80962957 8.85286988 11.77734375 16.1015625 C12.15308266 19.50683448 12.12924137 22.8665504 12.0703125 26.2890625 C12.06606766 27.23217285 12.06182281 28.1752832 12.05744934 29.14697266 C12.04077945 32.13213768 12.0031495 35.11660468 11.96484375 38.1015625 C11.94978179 40.13670894 11.93609604 42.17186605 11.92382812 44.20703125 C11.8909143 49.1721402 11.83921374 54.13673337 11.77734375 59.1015625 C6.49734375 59.1015625 1.21734375 59.1015625 -4.22265625 59.1015625 C-4.27164063 56.65621094 -4.320625 54.21085937 -4.37109375 51.69140625 C-4.42521016 49.30503585 -4.48247558 46.91876016 -4.54003906 44.5324707 C-4.57815924 42.88280385 -4.61304075 41.23305868 -4.64453125 39.58325195 C-4.69055285 37.20235329 -4.7484826 34.82198598 -4.80859375 32.44140625 C-4.82014496 31.71195297 -4.83169617 30.98249969 -4.84359741 30.23094177 C-5.0045471 24.55915795 -5.50911306 19.18994326 -9.22265625 14.6640625 C-13.57034249 12.39964258 -17.41848458 12.32720588 -22.22265625 13.1015625 C-25.62142781 14.94256376 -26.83382927 16.17483806 -28.32177734 19.72119141 C-29.38076614 23.69483881 -29.57437049 27.47931395 -29.63671875 31.5625 C-29.6560849 32.35306793 -29.67545105 33.14363586 -29.69540405 33.9581604 C-29.75481678 36.46418733 -29.80143052 38.97026115 -29.84765625 41.4765625 C-29.88587138 43.18361293 -29.92492514 44.89064481 -29.96484375 46.59765625 C-30.0620535 50.76552423 -30.14192369 54.933213 -30.22265625 59.1015625 C-35.50265625 59.1015625 -40.78265625 59.1015625 -46.22265625 59.1015625 C-46.22265625 39.3015625 -46.22265625 19.5015625 -46.22265625 -0.8984375 C-40.94265625 -0.8984375 -35.66265625 -0.8984375 -30.22265625 -0.8984375 C-29.89265625 0.4215625 -29.56265625 1.7415625 -29.22265625 3.1015625 C-28.65160156 2.740625 -28.08054687 2.3796875 -27.4921875 2.0078125 C-19.0225915 -2.83965103 -9.13661381 -4.13368997 0 0 Z " fill="#000000" transform="translate(331.22265625,59.8984375)"/>
<path d="M0 0 C6.38435248 3.95689538 9.80962957 8.85286988 11.77734375 16.1015625 C12.15308266 19.50683448 12.12924137 22.8665504 12.0703125 26.2890625 C12.06606766 27.23217285 12.06182281 28.1752832 12.05744934 29.14697266 C12.04077945 32.13213768 12.0031495 35.11660468 11.96484375 38.1015625 C11.94978179 40.13670894 11.93609604 42.17186605 11.92382812 44.20703125 C11.8909143 49.1721402 11.83921374 54.13673337 11.77734375 59.1015625 C6.49734375 59.1015625 1.21734375 59.1015625 -4.22265625 59.1015625 C-4.27164063 56.65621094 -4.320625 54.21085937 -4.37109375 51.69140625 C-4.42521016 49.30503585 -4.48247558 46.91876016 -4.54003906 44.5324707 C-4.57815924 42.88280385 -4.61304075 41.23305868 -4.64453125 39.58325195 C-4.69055285 37.20235329 -4.7484826 34.82198598 -4.80859375 32.44140625 C-4.82014496 31.71195297 -4.83169617 30.98249969 -4.84359741 30.23094177 C-5.0045471 24.55915795 -5.50911306 19.18994326 -9.22265625 14.6640625 C-13.57034249 12.39964258 -17.41848458 12.32720588 -22.22265625 13.1015625 C-25.62142781 14.94256376 -26.83382927 16.17483806 -28.32177734 19.72119141 C-29.38076614 23.69483881 -29.57437049 27.47931395 -29.63671875 31.5625 C-29.6560849 32.35306793 -29.67545105 33.14363586 -29.69540405 33.9581604 C-29.75481678 36.46418733 -29.80143052 38.97026115 -29.84765625 41.4765625 C-29.88587138 43.18361293 -29.92492514 44.89064481 -29.96484375 46.59765625 C-30.0620535 50.76552423 -30.14192369 54.933213 -30.22265625 59.1015625 C-35.50265625 59.1015625 -40.78265625 59.1015625 -46.22265625 59.1015625 C-46.22265625 39.3015625 -46.22265625 19.5015625 -46.22265625 -0.8984375 C-40.94265625 -0.8984375 -35.66265625 -0.8984375 -30.22265625 -0.8984375 C-29.89265625 0.4215625 -29.56265625 1.7415625 -29.22265625 3.1015625 C-28.65160156 2.740625 -28.08054687 2.3796875 -27.4921875 2.0078125 C-19.0225915 -2.83965103 -9.13661381 -4.13368997 0 0 Z " fill="#000000" transform="translate(83.22265625,59.8984375)"/>
<path d="M0 0 C2.51848127 1.87350436 4.2765028 3.75595767 5.921875 6.4296875 C6.334375 7.0690625 6.746875 7.7084375 7.171875 8.3671875 C8.1641857 11.09604193 7.96894708 13.54652267 7.921875 16.4296875 C5.3159861 16.56462996 2.71705389 16.66371049 0.109375 16.7421875 C-0.62861328 16.78408203 -1.36660156 16.82597656 -2.12695312 16.86914062 C-4.28515625 16.91796875 -4.28515625 16.91796875 -8.078125 16.4296875 C-9.96484375 13.97265625 -9.96484375 13.97265625 -11.078125 11.4296875 C-14.2599466 9.8387767 -17.61448704 10.03384316 -21.078125 10.4296875 C-23.23378417 11.49687048 -23.23378417 11.49687048 -24.078125 13.4296875 C-24.04807103 15.47714013 -24.04807103 15.47714013 -23.078125 17.4296875 C-20.915821 18.62973906 -20.915821 18.62973906 -18.1953125 19.359375 C-16.69097656 19.84083984 -16.69097656 19.84083984 -15.15625 20.33203125 C-13.0444641 20.97329307 -10.93248911 21.61393254 -8.8203125 22.25390625 C-1.62304969 24.55813197 4.32401477 27.1375706 8.359375 33.8046875 C9.70845813 40.10040876 9.43427528 44.96611843 6.328125 50.6015625 C3.07082787 54.83604876 -1.84602209 57.52604278 -7.078125 58.4296875 C-25.37876653 59.57936735 -25.37876653 59.57936735 -33.078125 54.4296875 C-33.65949219 54.04425781 -34.24085938 53.65882812 -34.83984375 53.26171875 C-38.48838354 50.53193959 -40.48970301 47.66547947 -42.078125 43.4296875 C-42.12171474 41.76359095 -42.12877727 40.09558429 -42.078125 38.4296875 C-39.30567486 38.29481155 -36.53975412 38.19567943 -33.765625 38.1171875 C-32.97994141 38.07529297 -32.19425781 38.03339844 -31.38476562 37.99023438 C-29.17757131 37.94327279 -27.23469025 37.95045078 -25.078125 38.4296875 C-23.17578125 40.86328125 -23.17578125 40.86328125 -22.078125 43.4296875 C-17.96281846 45.94459705 -14.6823725 45.47215863 -10.078125 44.4296875 C-9.418125 43.7696875 -8.758125 43.1096875 -8.078125 42.4296875 C-8.01520898 39.87715998 -8.01520898 39.87715998 -9.078125 37.4296875 C-11.22096154 36.09950613 -11.22096154 36.09950613 -13.9609375 35.40234375 C-14.96382813 35.08458984 -15.96671875 34.76683594 -17 34.43945312 C-18.05703125 34.12685547 -19.1140625 33.81425781 -20.203125 33.4921875 C-28.45050145 31.02928643 -35.92658243 28.77360751 -40.515625 20.9921875 C-41.89331158 14.71605973 -41.20168912 10.05210291 -38.078125 4.4296875 C-28.37958608 -5.49439884 -11.89009531 -7.06223782 0 0 Z " fill="#000000" transform="translate(522.078125,61.5703125)"/>
<path d="M0 0 C7.29803772 4.54609743 10.60578257 10.18650369 13.11328125 18.31640625 C13.11328125 18.64640625 13.11328125 18.97640625 13.11328125 19.31640625 C10.21518736 19.47891619 7.32623274 19.59748261 4.42578125 19.69140625 C3.20084961 19.76681641 3.20084961 19.76681641 1.95117188 19.84375 C-4.07301855 19.99008661 -4.07301855 19.99008661 -6.46582031 18.0090332 C-7.67349922 16.49623966 -8.78467427 14.90779892 -9.88671875 13.31640625 C-14.10803582 11.36209279 -16.07030866 11.0950069 -20.57421875 12.31640625 C-24.80656549 14.87178542 -26.81065026 17.62623502 -28.63671875 22.19140625 C-29.41771352 28.82986183 -29.16946906 34.39432469 -25.88671875 40.31640625 C-23.33480058 43.00626594 -21.52186403 44.10929366 -18.01171875 45.25390625 C-13.89500749 45.33624048 -11.45741082 44.33755271 -7.88671875 42.31640625 C-7.51289062 41.45917969 -7.1390625 40.60195312 -6.75390625 39.71875 C-4.88671875 37.31640625 -4.88671875 37.31640625 -2.96459961 36.91113281 C-0.52572269 36.82343126 1.86348166 36.88138152 4.30078125 37.00390625 C5.14576172 37.02646484 5.99074219 37.04902344 6.86132812 37.07226562 C8.94606923 37.13115662 11.02989929 37.22083827 13.11328125 37.31640625 C10.91093406 45.79482588 7.10957627 52.16015353 -0.57421875 56.75390625 C-8.5864611 60.53326585 -19.19586618 60.7238214 -27.79296875 58.59765625 C-36.15003391 55.04876557 -41.23609694 49.51308541 -44.88671875 41.31640625 C-48.31423642 32.02836615 -47.75616059 21.73617444 -43.734375 12.73828125 C-39.77276019 5.40764775 -34.77288467 1.29543993 -27.08984375 -1.81640625 C-18.53300076 -4.13301496 -8.04131277 -3.87875087 0 0 Z " fill="#000000" transform="translate(1164.88671875,60.68359375)"/>
<path d="M0 0 C18.81 0 37.62 0 57 0 C57 4.29 57 8.58 57 13 C50.4 13 43.8 13 37 13 C37 33.79 37 54.58 37 76 C31.39 76 25.78 76 20 76 C20 55.21 20 34.42 20 13 C13.4 13 6.8 13 0 13 C0 8.71 0 4.42 0 0 Z " fill="#000000" transform="translate(989,43)"/>
<path d="M0 0 C0 4.29 0 8.58 0 13 C-2.64 13.66 -5.28 14.32 -8 15 C-8.33 17.97 -8.66 20.94 -9 24 C-5.7 24 -2.4 24 1 24 C1 28.29 1 32.58 1 37 C-2.3 37 -5.6 37 -9 37 C-9 52.51 -9 68.02 -9 84 C-14.61 84 -20.22 84 -26 84 C-26 68.49 -26 52.98 -26 37 C-28.31 37 -30.62 37 -33 37 C-33 32.71 -33 28.42 -33 24 C-30.69 24 -28.38 24 -26 24 C-26.04640625 23.3709375 -26.0928125 22.741875 -26.140625 22.09375 C-26.40724699 15.77099984 -25.70809185 11.21790123 -22 6 C-15.5166773 -0.4833227 -8.66599787 -0.2113658 0 0 Z " fill="#000000" transform="translate(958,35)"/>
<path d="M0 0 C5.61 0 11.22 0 17 0 C17 4.95 17 9.9 17 15 C21.62 15 26.24 15 31 15 C31 19.29 31 23.58 31 28 C26.38 28 21.76 28 17 28 C17.07392222 32.37925445 17.15666404 36.75643409 17.26245117 41.13476562 C17.29573463 42.62456572 17.32375597 44.11449295 17.34643555 45.60449219 C17.37992071 47.74469252 17.43222789 49.88372419 17.48828125 52.0234375 C17.51446533 53.31169434 17.54064941 54.59995117 17.56762695 55.92724609 C17.71031006 56.94125488 17.85299316 57.95526367 18 59 C22.27846832 61.85231222 25.895631 61.60225696 31 62 C31 66.29 31 70.58 31 75 C27.95778935 75.08132642 24.9177762 75.14065374 21.875 75.1875 C21.0190625 75.21263672 20.163125 75.23777344 19.28125 75.26367188 C12.87314475 75.33761155 8.50971786 74.44000348 3.75 69.8125 C-1.27946293 61.72943457 -0.23509192 52.15424731 -0.125 43 C-0.11495155 41.54297489 -0.10582899 40.08594309 -0.09765625 38.62890625 C-0.07578711 35.08579671 -0.04135977 31.54294188 0 28 C-2.31 28 -4.62 28 -7 28 C-7 23.71 -7 19.42 -7 15 C-4.69 15 -2.38 15 0 15 C0 10.05 0 5.1 0 0 Z " fill="#000000" transform="translate(616,44)"/>
<path d="M0 0 C5.61 0 11.22 0 17 0 C17 4.95 17 9.9 17 15 C21.62 15 26.24 15 31 15 C31 19.29 31 23.58 31 28 C26.38 28 21.76 28 17 28 C17.07392222 32.37925445 17.15666404 36.75643409 17.26245117 41.13476562 C17.29573463 42.62456572 17.32375597 44.11449295 17.34643555 45.60449219 C17.37992071 47.74469252 17.43222789 49.88372419 17.48828125 52.0234375 C17.51446533 53.31169434 17.54064941 54.59995117 17.56762695 55.92724609 C17.71031006 56.94125488 17.85299316 57.95526367 18 59 C22.27846832 61.85231222 25.895631 61.60225696 31 62 C31 66.29 31 70.58 31 75 C27.95778935 75.08132642 24.9177762 75.14065374 21.875 75.1875 C21.0190625 75.21263672 20.163125 75.23777344 19.28125 75.26367188 C12.87314475 75.33761155 8.50971786 74.44000348 3.75 69.8125 C-1.27946293 61.72943457 -0.23509192 52.15424731 -0.125 43 C-0.11495155 41.54297489 -0.10582899 40.08594309 -0.09765625 38.62890625 C-0.07578711 35.08579671 -0.04135977 31.54294188 0 28 C-2.31 28 -4.62 28 -7 28 C-7 23.71 -7 19.42 -7 15 C-4.69 15 -2.38 15 0 15 C0 10.05 0 5.1 0 0 Z " fill="#000000" transform="translate(544,44)"/>
<path d="M0 0 C5.28 0 10.56 0 16 0 C16 4.95 16 9.9 16 15 C20.62 15 25.24 15 30 15 C30 19.29 30 23.58 30 28 C25.38 28 20.76 28 16 28 C16.07400967 32.21855131 16.1568302 36.43498328 16.26245117 40.65258789 C16.29569001 42.08704628 16.32372535 43.52163513 16.34643555 44.95629883 C16.38000271 47.01960807 16.43231413 49.08172303 16.48828125 51.14453125 C16.51446533 52.38565674 16.54064941 53.62678223 16.56762695 54.90551758 C16.74809297 57.96544997 16.74809297 57.96544997 18.37695312 59.89648438 C20.63066868 61.42879399 22.48719234 61.51215535 25.1875 61.6875 C27.5696875 61.8421875 27.5696875 61.8421875 30 62 C30 66.29 30 70.58 30 75 C26.97818586 75.10867663 23.96033673 75.18762754 20.9375 75.25 C20.08994141 75.28351563 19.24238281 75.31703125 18.36914062 75.3515625 C12.34180606 75.44464875 8.94419683 74.48736699 4 71 C-0.21706442 66.36122914 -0.13777061 61.83192627 -0.09765625 55.83203125 C-0.0962413 55.03721848 -0.09482635 54.2424057 -0.09336853 53.42350769 C-0.08777378 50.88646675 -0.07522228 48.34951425 -0.0625 45.8125 C-0.05748432 44.09179815 -0.05292153 42.37109492 -0.04882812 40.65039062 C-0.03780607 36.4335597 -0.02054506 32.21679484 0 28 C-2.64 28 -5.28 28 -8 28 C-8 23.71 -8 19.42 -8 15 C-5.36 15 -2.72 15 0 15 C0 10.05 0 5.1 0 0 Z " fill="#000000" transform="translate(730,44)"/>
<path d="M0 0 C5.61 0 11.22 0 17 0 C17 26.4 17 52.8 17 80 C11.39 80 5.78 80 0 80 C0 53.6 0 27.2 0 0 Z " fill="#000000" transform="translate(1399,39)"/>
<path d="M0 0 C0 5.61 0 11.22 0 17 C-2.5678125 17.1546875 -2.5678125 17.1546875 -5.1875 17.3125 C-11.10975488 17.83588614 -11.10975488 17.83588614 -16 21 C-17.9525243 25.65628732 -18.33325185 30.03720206 -18.4140625 35.0234375 C-18.43342865 35.76961334 -18.4527948 36.51578918 -18.4727478 37.28457642 C-18.53212065 39.64793777 -18.5787578 42.01134897 -18.625 44.375 C-18.66321884 45.98569732 -18.7022728 47.59637506 -18.7421875 49.20703125 C-18.83934629 53.13791397 -18.91924712 57.06860967 -19 61 C-24.28 61 -29.56 61 -35 61 C-35 41.2 -35 21.4 -35 1 C-29.72 1 -24.44 1 -19 1 C-18.67 2.65 -18.34 4.3 -18 6 C-17.29875 5.38125 -16.5975 4.7625 -15.875 4.125 C-10.43346438 0.10299541 -6.87622175 0 0 0 Z " fill="#000000" transform="translate(2276,58)"/>
<path d="M0 0 C0 5.61 0 11.22 0 17 C-2.734375 17.1953125 -5.46875 17.390625 -8.203125 17.5859375 C-11.90937684 18.08624647 -11.90937684 18.08624647 -15 20 C-19.25669167 27.63671916 -18.56175321 36.48721354 -18.6875 45 C-18.7207203 46.55341343 -18.75521422 48.10680017 -18.79101562 49.66015625 C-18.87774916 53.44012474 -18.93826417 57.21921285 -19 61 C-24.28 61 -29.56 61 -35 61 C-35 41.2 -35 21.4 -35 1 C-29.72 1 -24.44 1 -19 1 C-18.67 2.98 -18.34 4.96 -18 7 C-17.113125 6.21625 -16.22625 5.4325 -15.3125 4.625 C-10.05031074 0.28492335 -7.12149153 0 0 0 Z " fill="#000000" transform="translate(1941,58)"/>
<path d="M0 0 C5.28 0 10.56 0 16 0 C16 25.08 16 50.16 16 76 C10.72 76 5.44 76 0 76 C0 50.92 0 25.84 0 0 Z " fill="#000000" transform="translate(382,43)"/>
<path d="M0 0 C5.28 0 10.56 0 16 0 C16 25.08 16 50.16 16 76 C10.72 76 5.44 76 0 76 C0 50.92 0 25.84 0 0 Z " fill="#000000" transform="translate(7,43)"/>
<path d="M0 0 C5.61 0 11.22 0 17 0 C17 19.8 17 39.6 17 60 C11.39 60 5.78 60 0 60 C0 40.2 0 20.4 0 0 Z " fill="#000000" transform="translate(584,59)"/>
<path d="M0 0 C5.28 0 10.56 0 16 0 C16 19.8 16 39.6 16 60 C10.72 60 5.44 60 0 60 C0 40.2 0 20.4 0 0 Z " fill="#000000" transform="translate(182,59)"/>
<path d="M0 0 C1.48831242 0.00667405 2.97660807 0.01863442 4.46484375 0.03515625 C5.22345703 0.03966797 5.98207031 0.04417969 6.76367188 0.04882812 C8.64326246 0.06064945 10.52281274 0.07858547 12.40234375 0.09765625 C11.76393221 3.90947626 10.6518476 7.20756574 9.15234375 10.765625 C8.70890625 11.82330078 8.26546875 12.88097656 7.80859375 13.97070312 C7.1125 15.61135742 7.1125 15.61135742 6.40234375 17.28515625 C5.93828125 18.39052734 5.47421875 19.49589844 4.99609375 20.63476562 C1.60818352 28.68597671 1.60818352 28.68597671 0.40234375 31.09765625 C-3.22765625 31.09765625 -6.85765625 31.09765625 -10.59765625 31.09765625 C-9.98041134 24.25184904 -8.7305977 17.76938847 -7.09765625 11.09765625 C-6.87207031 10.14503906 -6.64648438 9.19242188 -6.4140625 8.2109375 C-4.46374663 0.12116576 -4.46374663 0.12116576 0 0 Z " fill="#000000" transform="translate(1641.59765625,102.90234375)"/>
<path d="M0 0 C3.0625 1.9375 3.0625 1.9375 5 5 C5.84905616 9.26044253 5.6753605 12.68143902 3.6875 16.5625 C-0.71371578 18.91663868 -5.13073203 18.71781002 -10 18 C-13.52249559 15.90327643 -13.86205579 14.50579544 -14.9375 10.5625 C-15.00754154 6.57013213 -14.46465254 5.08081567 -12 2 C-7.96514506 -0.68990329 -4.73771348 -0.77993882 0 0 Z " fill="#000000" transform="translate(597,34)"/>
<path d="M0 0 C2.8100346 1.79363911 4.50940468 3.01880935 6 6 C6.47707476 10.21416041 6.43171409 12.32364792 4.125 15.9375 C-0.25489328 18.82822957 -3.89397929 19.02120414 -9 18 C-12.12823648 15.99792865 -13.55889152 14.69604502 -14.50390625 11.0625 C-14.87954496 6.84255874 -14.27912243 5.33494691 -11.5 2 C-7.60756702 -0.71458092 -4.63860763 -0.66265823 0 0 Z " fill="#000000" transform="translate(194,34)"/>
<path d="M0 0 C2.28219971 5.28509407 2.28219971 5.28509407 1.0625 8.375 C-1.9713602 10.7653141 -4.25316399 10.40874575 -8 10 C-10 8 -10 8 -10.375 5.0625 C-10 2 -10 2 -8.375 0.0625 C-5.23872457 -1.34057059 -3.27549981 -0.81887495 0 0 Z " fill="#000000" transform="translate(1722,197)"/>
<path d="M0 0 C3.5 0.25 3.5 0.25 5.5 2.25 C5.82954432 5.34771665 5.95334601 7.42331023 4.4375 10.1875 C1.34787273 11.88181173 -1.17217418 10.98951685 -4.5 10.25 C-5.5 9.25 -5.5 9.25 -5.6875 5.8125 C-5.43355732 0.98758914 -4.81673664 0.34405262 0 0 Z " fill="#000000" transform="translate(2079.5,289.75)"/>
</svg>
