<?xml version="1.0" encoding="UTF-8"?>
<svg version="1.1" xmlns="http://www.w3.org/2000/svg" width="1080" height="276">
<path d="M0 0 C356.4 0 712.8 0 1080 0 C1080 91.08 1080 182.16 1080 276 C723.6 276 367.2 276 0 276 C0 184.92 0 93.84 0 0 Z " fill="#FDFDFD" transform="translate(0,0)"/>
<path d="M0 0 C0.97071756 -0.0147084 1.94143513 -0.02941681 2.94156837 -0.04457092 C4.13609643 -0.07160725 4.13609643 -0.07160725 5.35475636 -0.09918976 C11.70621413 0.36619774 17.48383385 4.0588469 22.05675697 8.31272888 C26.85742098 13.884484 28.23933606 20.04992266 27.95519447 27.28538513 C26.98978412 34.14945275 24.26442542 39.97601964 19.56456947 45.06272888 C16.72472572 46.82835388 16.72472572 46.82835388 13.62706947 48.31272888 C12.60742104 48.81288513 11.5877726 49.31304138 10.53722572 49.82835388 C6.39074963 51.55014948 2.7218456 52.2009878 -1.74793053 52.12522888 C-2.96480553 52.10460388 -4.18168053 52.08397888 -5.43543053 52.06272888 C-3.52830187 56.94308297 -1.65040169 61.04411912 3.31847572 63.43772888 C10.7991635 65.51931157 18.82330688 64.92993101 25.69738197 61.31663513 C32.12100133 57.00286565 33.08014725 52.51599556 35.56456947 45.06272888 C35.89456947 30.54272888 36.22456947 16.02272888 36.56456947 1.06272888 C92.66456947 1.06272888 148.76456947 1.06272888 206.56456947 1.06272888 C206.56456947 6.34272888 206.56456947 11.62272888 206.56456947 17.06272888 C202.60456947 17.06272888 198.64456947 17.06272888 194.56456947 17.06272888 C194.56456947 41.48272888 194.56456947 65.90272888 194.56456947 91.06272888 C188.29456947 91.06272888 182.02456947 91.06272888 175.56456947 91.06272888 C175.56456947 76.54272888 175.56456947 62.02272888 175.56456947 47.06272888 C170.61456947 47.06272888 165.66456947 47.06272888 160.56456947 47.06272888 C161.22456947 48.71272888 161.88456947 50.36272888 162.56456947 52.06272888 C163.36976144 59.63153337 163.90471617 67.19767964 159.05285072 73.48460388 C153.94804752 78.89757106 149.39077259 81.72174083 141.79503822 82.39866638 C131.77535409 82.62356546 124.32949338 81.72504099 116.68956947 74.81272888 C110.5781543 68.07741053 109.99160232 61.34594792 110.22081947 52.40647888 C110.87067436 46.08516319 113.1649979 42.12244264 117.75206947 37.81272888 C125.21282058 32.12507651 132.00951791 30.46787526 141.28722572 30.67210388 C142.76635696 30.68059357 142.76635696 30.68059357 144.27536964 30.68925476 C147.39311846 30.71146154 150.50967409 30.76162799 153.62706947 30.81272888 C155.75400588 30.83281418 157.88096049 30.85106138 160.00792885 30.86741638 C165.19392825 30.9112748 170.37904729 30.98019226 175.56456947 31.06272888 C175.56456947 26.44272888 175.56456947 21.82272888 175.56456947 17.06272888 C148.83456947 17.06272888 122.10456947 17.06272888 94.56456947 17.06272888 C94.56456947 41.48272888 94.56456947 65.90272888 94.56456947 91.06272888 C88.29456947 91.06272888 82.02456947 91.06272888 75.56456947 91.06272888 C75.56456947 66.64272888 75.56456947 42.22272888 75.56456947 17.06272888 C68.96456947 17.06272888 62.36456947 17.06272888 55.56456947 17.06272888 C55.56456947 41.48272888 55.56456947 65.90272888 55.56456947 91.06272888 C49.29456947 91.06272888 43.02456947 91.06272888 36.56456947 91.06272888 C36.23456947 84.13272888 35.90456947 77.20272888 35.56456947 70.06272888 C34.26519447 71.32085388 32.96581947 72.57897888 31.62706947 73.87522888 C23.80142875 80.7302475 16.74192926 81.6983817 6.42785072 81.48069763 C-2.0859945 80.55958394 -10.59594009 77.47192571 -16.43543053 71.06272888 C-20.65980176 65.18664852 -22.38294549 61.43012412 -23.43543053 54.06272888 C-37.29543053 54.06272888 -51.15543053 54.06272888 -65.43543053 54.06272888 C-65.58383305 68.41684024 -65.58383305 68.41684024 -62.43543053 74.06272888 C-59.55476274 75.15271129 -57.77055339 75.12507732 -54.74793053 74.56272888 C-51.54368165 72.84415535 -51.54368165 72.84415535 -50.43543053 66.06272888 C-44.49543053 66.06272888 -38.55543053 66.06272888 -32.43543053 66.06272888 C-32.43543053 74.58140804 -32.89339637 77.79211151 -36.99793053 84.68772888 C-42.9285808 90.4663112 -49.19226346 92.57401673 -57.43543053 92.68772888 C-65.35876463 92.56014194 -71.24677526 90.66193586 -77.26746178 85.48851013 C-85.34001331 77.06241619 -84.82877667 66.45668121 -84.62293053 55.50022888 C-84.60785164 54.09594641 -84.59416892 52.69164822 -84.5819149 51.28733826 C-84.54677459 47.87872773 -84.49757175 44.47093618 -84.43543053 41.06272888 C-82.99127769 40.97511292 -82.99127769 40.97511292 -81.51795006 40.88572693 C-80.25579674 40.80362976 -78.99364342 40.72153259 -77.69324303 40.63694763 C-76.44172447 40.55791199 -75.19020592 40.47887634 -73.90076256 40.39744568 C-68.34893936 39.86119447 -65.1385435 38.72102309 -61.06043053 34.75022888 C-58.53994757 29.59199351 -58.53994757 29.59199351 -58.43543053 17.06272888 C-72.95543053 17.06272888 -87.47543053 17.06272888 -102.43543053 17.06272888 C-102.43543053 41.48272888 -102.43543053 65.90272888 -102.43543053 91.06272888 C-108.70543053 91.06272888 -114.97543053 91.06272888 -121.43543053 91.06272888 C-121.43543053 78.85272888 -121.43543053 66.64272888 -121.43543053 54.06272888 C-136.28543053 54.06272888 -151.13543053 54.06272888 -166.43543053 54.06272888 C-167.03796512 69.0414581 -167.03796512 69.0414581 -161.43543053 75.06272888 C-159.06177004 75.45262104 -159.06177004 75.45262104 -156.68543053 74.87522888 C-155.88621178 74.73729919 -155.08699303 74.59936951 -154.26355553 74.45726013 C-153.66027428 74.32706482 -153.05699303 74.19686951 -152.43543053 74.06272888 C-151.77543053 71.42272888 -151.11543053 68.78272888 -150.43543053 66.06272888 C-144.49543053 66.06272888 -138.55543053 66.06272888 -132.43543053 66.06272888 C-132.43543053 74.64906469 -132.81278727 79.56100927 -138.62293053 85.87522888 C-145.41038749 92.04308396 -152.0148407 92.56953216 -161.02527428 92.34788513 C-168.61429161 91.71329376 -174.10715585 89.51491692 -179.43543053 84.06272888 C-183.90878115 77.75870012 -185.69631425 71.58612408 -185.63074303 63.91429138 C-185.62791313 63.25689972 -185.62508324 62.59950806 -185.62216759 61.92219543 C-185.611065 59.84384656 -185.58598039 57.76594522 -185.56043053 55.68772888 C-185.55038784 54.2697664 -185.54126425 52.8517971 -185.53308678 51.43382263 C-185.51115858 47.97664852 -185.47669871 44.51973246 -185.43543053 41.06272888 C-184.36583092 41.0274408 -183.29623131 40.99215271 -182.19421959 40.95579529 C-171.5932513 40.7974892 -171.5932513 40.7974892 -162.43543053 36.06272888 C-158.43035019 29.86131416 -159.08996919 24.9171928 -158.43543053 17.06272888 C-170.31543053 17.06272888 -182.19543053 17.06272888 -194.43543053 17.06272888 C-194.43543053 11.78272888 -194.43543053 6.50272888 -194.43543053 1.06272888 C-169.72210268 0.93200528 -145.00877323 0.80158898 -120.29544163 0.67157745 C-108.82004972 0.61120019 -97.34465841 0.55071527 -85.86926842 0.48997498 C-75.86474622 0.43702039 -65.86022296 0.38426978 -55.85569841 0.33176184 C-50.56075894 0.30396471 -45.26582006 0.27606698 -39.97088242 0.2479248 C-34.98135315 0.22140908 -29.99182251 0.19516726 -25.00229073 0.16913033 C-23.1766581 0.15955627 -21.35102598 0.14988442 -19.52539444 0.14010429 C-18.66731752 0.13551264 -17.80924061 0.13092098 -16.92516136 0.12619019 C-15.68479903 0.11948681 -15.68479903 0.11948681 -14.41937888 0.11264801 C-12.10723451 0.10117842 -9.79509541 0.09303045 -7.48293686 0.08505249 C-4.98738449 0.07524801 -2.49542724 0.04556499 0 0 Z " fill="#040404" transform="translate(848.4354305267334,46.93727111816406)"/>
<path d="M0 0 C3.62161505 2.76315815 5.69860216 5.52802965 7.08203125 9.83203125 C7.69409568 16.49673287 8.3047836 23.28966878 4.08203125 28.83203125 C1.51747182 31.30048293 -1.1428718 33.60404368 -3.91796875 35.83203125 C-1.06290826 36.78371808 0.99140407 37.02212585 3.96875 37.1484375 C5.23658325 37.20559937 5.23658325 37.20559937 6.5300293 37.26391602 C7.59906494 37.30701904 8.66810059 37.35012207 9.76953125 37.39453125 C13.17265625 37.53890625 16.57578125 37.68328125 20.08203125 37.83203125 C20.08203125 23.97203125 20.08203125 10.11203125 20.08203125 -4.16796875 C100.60203125 -4.16796875 181.12203125 -4.16796875 264.08203125 -4.16796875 C264.08203125 1.11203125 264.08203125 6.39203125 264.08203125 11.83203125 C259.46203125 11.83203125 254.84203125 11.83203125 250.08203125 11.83203125 C250.08203125 20.41203125 250.08203125 28.99203125 250.08203125 37.83203125 C237.45703125 38.14453125 237.45703125 38.14453125 233.50927734 38.2199707 C223.96683748 38.50737963 223.96683748 38.50737963 216.234375 43.7109375 C214.13735125 47.57088292 214.44110361 51.57296374 215.08203125 55.83203125 C216.87849979 58.7662632 218.02613835 60.3040848 221.08203125 61.83203125 C225.21436933 62.10300424 228.07635832 62.20369299 231.95703125 60.76953125 C234.84697623 58.47536998 234.84697623 58.47536998 236.08203125 51.83203125 C242.02203125 51.83203125 247.96203125 51.83203125 254.08203125 51.83203125 C254.08203125 64.37203125 254.08203125 76.91203125 254.08203125 89.83203125 C248.14203125 89.83203125 242.20203125 89.83203125 236.08203125 89.83203125 C236.08203125 84.22203125 236.08203125 78.61203125 236.08203125 72.83203125 C234.67953125 73.65703125 233.27703125 74.48203125 231.83203125 75.33203125 C225.14639084 78.65121058 218.68385472 79.20145606 211.49609375 77.0625 C202.70960198 73.39902918 198.7084558 68.53545017 195.08203125 59.83203125 C192.98314132 53.21854789 193.05320872 45.42834748 195.70703125 39.01953125 C200.34000802 30.12357238 206.42701946 25.38899577 215.96484375 22.203125 C218.93702188 21.68217127 221.81758413 21.73938678 224.83203125 21.76953125 C226.58773437 21.78306641 226.58773437 21.78306641 228.37890625 21.796875 C229.2709375 21.80847656 230.16296875 21.82007812 231.08203125 21.83203125 C231.08203125 18.53203125 231.08203125 15.23203125 231.08203125 11.83203125 C213.59203125 11.83203125 196.10203125 11.83203125 178.08203125 11.83203125 C178.08203125 36.25203125 178.08203125 60.67203125 178.08203125 85.83203125 C171.81203125 85.83203125 165.54203125 85.83203125 159.08203125 85.83203125 C159.08203125 71.31203125 159.08203125 56.79203125 159.08203125 41.83203125 C154.13203125 41.83203125 149.18203125 41.83203125 144.08203125 41.83203125 C144.57703125 42.96640625 145.07203125 44.10078125 145.58203125 45.26953125 C148.05555582 52.03604799 148.01804228 57.41884856 145.01953125 64.01953125 C141.93646561 69.61956291 138.2889856 73.50990599 132.34375 75.9609375 C124.46343405 78.06550092 114.95388918 78.23312519 107.45703125 74.76953125 C101.26004007 71.06175166 96.78420387 66.05656886 94.55859375 59.125 C92.90272511 51.15782875 93.41795829 44.14549863 97.46484375 37.0234375 C101.54875477 31.48944213 107.52750041 27.81318257 114.08203125 25.83203125 C117.59783183 25.4404562 121.07551374 25.48135493 124.609375 25.5390625 C126.09275108 25.54542976 126.09275108 25.54542976 127.60609436 25.55192566 C130.74419134 25.56862996 133.88163053 25.6062671 137.01953125 25.64453125 C139.15558964 25.65958874 141.29165816 25.67327528 143.42773438 25.68554688 C148.64608424 25.71850651 153.86394647 25.77023189 159.08203125 25.83203125 C159.08203125 21.21203125 159.08203125 16.59203125 159.08203125 11.83203125 C132.35203125 11.83203125 105.62203125 11.83203125 78.08203125 11.83203125 C78.08203125 36.25203125 78.08203125 60.67203125 78.08203125 85.83203125 C71.81203125 85.83203125 65.54203125 85.83203125 59.08203125 85.83203125 C59.08203125 61.41203125 59.08203125 36.99203125 59.08203125 11.83203125 C52.81203125 11.83203125 46.54203125 11.83203125 40.08203125 11.83203125 C40.08203125 36.25203125 40.08203125 60.67203125 40.08203125 85.83203125 C33.81203125 85.83203125 27.54203125 85.83203125 21.08203125 85.83203125 C21.08203125 75.27203125 21.08203125 64.71203125 21.08203125 53.83203125 C17.12203125 53.83203125 13.16203125 53.83203125 9.08203125 53.83203125 C9.04078125 55.29640625 8.99953125 56.76078125 8.95703125 58.26953125 C8.31950145 64.27081175 6.33114843 68.52342643 2.08203125 72.83203125 C-6.57103298 78.46189758 -14.70226836 79.76272207 -24.91796875 78.83203125 C-32.8389611 76.6167469 -38.23644276 71.43298289 -42.91796875 64.83203125 C-45.05269202 60.29574429 -44.91796875 58.09496248 -44.91796875 52.83203125 C-38.97796875 52.83203125 -33.03796875 52.83203125 -26.91796875 52.83203125 C-26.25796875 55.14203125 -25.59796875 57.45203125 -24.91796875 59.83203125 C-22.15749332 60.75218973 -20.28434606 61.0247037 -17.41796875 61.08203125 C-16.64453125 61.1078125 -15.87109375 61.13359375 -15.07421875 61.16015625 C-12.86092575 60.98629801 -12.86092575 60.98629801 -11.15234375 59.59765625 C-9.58358676 57.35373803 -9.57745606 56.04741199 -9.66796875 53.33203125 C-9.6834375 52.55859375 -9.69890625 51.78515625 -9.71484375 50.98828125 C-9.8532517 48.64975055 -9.8532517 48.64975055 -10.91796875 45.83203125 C-13.92575396 44.82943618 -16.45617522 44.52888483 -19.60546875 44.26953125 C-21.35859375 44.12515625 -23.11171875 43.98078125 -24.91796875 43.83203125 C-24.91796875 38.55203125 -24.91796875 33.27203125 -24.91796875 27.83203125 C-21.20703125 27.58789062 -21.20703125 27.58789062 -17.49609375 27.34375 C-14.50006676 26.74908404 -13.05108362 26.01418325 -10.91796875 23.83203125 C-10.32504753 21.66363134 -10.32504753 21.66363134 -10.48046875 19.33203125 C-10.48240234 18.171875 -10.48240234 18.171875 -10.484375 16.98828125 C-11.02397575 14.30486131 -11.66616892 13.37826713 -13.91796875 11.83203125 C-16.14505698 11.61047834 -16.14505698 11.61047834 -18.48046875 12.01953125 C-19.26550781 12.11621094 -20.05054688 12.21289062 -20.859375 12.3125 C-23.1248277 12.69716934 -23.1248277 12.69716934 -24.91796875 14.83203125 C-25.24796875 16.15203125 -25.57796875 17.47203125 -25.91796875 18.83203125 C-31.85796875 18.83203125 -37.79796875 18.83203125 -43.91796875 18.83203125 C-43.91796875 10.82318682 -42.57560182 7.77375233 -37.30859375 2.09765625 C-26.59654044 -7.82819132 -12.18958509 -7.42298563 0 0 Z " fill="#050505" transform="translate(367.91796875,52.16796875)"/>
<path d="M0 0 C88.11 0 176.22 0 267 0 C267 5.28 267 10.56 267 16 C263.04 16 259.08 16 255 16 C255 40.42 255 64.84 255 90 C248.73 90 242.46 90 236 90 C235.67 84.39 235.34 78.78 235 73 C233.80375 73.78375 232.6075 74.5675 231.375 75.375 C223.10285664 80.79468013 214.51824005 80.73719702 205 80 C196.84316643 78.21702722 190.01673528 73.60014609 185.4296875 66.60546875 C182.63372608 61.40498051 181.32671851 56.88093312 181 51 C176.38 51 171.76 51 167 51 C167 53.31 167 55.62 167 58 C164.49797606 66.08346195 159.38467576 72.1390717 151.94140625 76.09375 C144.5414486 79.02657725 136.28417722 79.34325747 128.7109375 76.96875 C120.42928783 73.26975015 116.43769202 68.5599414 112.859375 60.3984375 C111.64970095 55.6147265 111.78848706 51.03627299 111.875 46.125 C111.88402344 45.15046875 111.89304687 44.1759375 111.90234375 43.171875 C111.9257823 40.78114328 111.96164911 38.39053901 112 36 C118.27 36 124.54 36 131 36 C131.25 45.1875 131.25 45.1875 131.29785156 48.05541992 C131.46139587 52.11002772 131.71901783 54.52689327 133.828125 58.078125 C135.96523251 60.31483242 135.96523251 60.31483242 139.5 60.5625 C143.00981275 60.27245361 143.00981275 60.27245361 145.375 58.25 C148.51066014 53.90831673 148.28213129 48.95290789 148.5625 43.75 C148.62727539 42.63238281 148.62727539 42.63238281 148.69335938 41.4921875 C148.79896725 39.661651 148.89994201 37.83084824 149 36 C150.10923828 35.98541748 151.21847656 35.97083496 152.36132812 35.95581055 C156.50650043 35.89750664 160.65114763 35.82027763 164.79589844 35.73754883 C166.58422271 35.70444965 168.37264768 35.67637174 170.16113281 35.65356445 C172.74327199 35.61974044 175.32450076 35.56741377 177.90625 35.51171875 C178.69616333 35.50532883 179.48607666 35.4989389 180.29992676 35.49235535 C185.49750334 35.35701757 190.46192224 34.70948188 195 32 C199.07955335 27.19992493 199.07955335 27.19992493 200 16 C165.68 16 131.36 16 96 16 C96 40.42 96 64.84 96 90 C89.73 90 83.46 90 77 90 C77 65.58 77 41.16 77 16 C71.06 16 65.12 16 59 16 C59.0825 17.8975 59.165 19.795 59.25 21.75 C59.25 30.7473077 57.06794868 40.08928066 51 47 C43.80408418 52.54464251 37.85435641 53.17361483 29 53 C29.11418667 55.58422459 29.24092362 58.16679513 29.375 60.75 C29.4059375 61.47960937 29.436875 62.20921875 29.46875 62.9609375 C29.67893782 68.32325404 29.67893782 68.32325404 32 73 C35.85909105 73.91214879 38.21603308 74.26132231 42 73 C42.66 69.7 43.32 66.4 44 63 C49.94 63 55.88 63 62 63 C62 71.98186605 61.18533815 78.82088532 54.83984375 85.4921875 C48.26817851 90.87788343 40.67926245 91.71508465 32.40625 91.4453125 C24.77867915 90.44813007 19.16825644 86.96059047 14.25390625 81.13671875 C9.11282104 72.37605329 9.64644447 63.82756302 9.8125 54 C9.82757027 52.44662752 9.84125454 50.89324094 9.85351562 49.33984375 C9.88634503 45.55954385 9.93799746 41.77992937 10 38 C11.21816406 37.96261719 12.43632813 37.92523438 13.69140625 37.88671875 C15.3151329 37.82101883 16.93882949 37.75457291 18.5625 37.6875 C19.36236328 37.66494141 20.16222656 37.64238281 20.98632812 37.61914062 C26.33354267 37.3790616 30.28528844 36.59814496 35 34 C39.29636243 28.93933983 39.29636243 28.93933983 40 16 C26.8 16 13.6 16 0 16 C0 10.72 0 5.44 0 0 Z " fill="#040404" transform="translate(25,48)"/>
<path d="M0 0 C6.9160028 -0.51019693 12.32798605 -0.25970526 18 4 C22.1118053 7.90094349 25.58079573 11.70595042 27.6875 17 C29.70720017 20.29305225 29.70720017 20.29305225 33.12890625 20.65234375 C36.43496281 20.91269125 39.68479172 21.03353534 43 21 C43 22.98 43 24.96 43 27 C39.04 27 35.08 27 31 27 C31 31.95 31 36.9 31 42 C29.77023437 42.03738281 28.54046875 42.07476562 27.2734375 42.11328125 C25.64059599 42.17897028 24.00778482 42.24541659 22.375 42.3125 C21.56675781 42.33505859 20.75851562 42.35761719 19.92578125 42.38085938 C13.73569934 42.65765166 9.41631592 43.90162038 4.625 48.0625 C2.24841953 52.35862623 2.35095332 56.19547153 3 61 C4.30921027 64.23857278 5.52033613 65.60256422 8.1875 67.8125 C11.86649126 69.36585186 15.10432156 69.67088004 19 69 C22.46255794 67.60845604 22.46255794 67.60845604 25 65 C26.43917432 61.38583483 26.43917432 61.38583483 27 58 C29.31 58 31.62 58 34 58 C34 66.91 34 75.82 34 85 C31.69 85 29.38 85 27 85 C26.67 80.38 26.34 75.76 26 71 C24.63875 71.99 24.63875 71.99 23.25 73 C18.08670819 75.93845875 12.76785578 75.75335259 7 75 C1.9174099 73.52411177 -1.54924929 70.07052774 -4.1171875 65.546875 C-6.38916926 58.99230814 -6.22479152 51.63103363 -3.3125 45.375 C1.76466891 40.16061031 6.68157314 36.25434344 14.1171875 35.81640625 C17.08448842 35.81291531 20.03583993 35.86858404 23 36 C23 33.03 23 30.06 23 27 C8.81 27 -5.38 27 -20 27 C-20 45.81 -20 64.62 -20 84 C-22.31 84 -24.62 84 -27 84 C-27.33 76.41 -27.66 68.82 -28 61 C-32.95159032 66.27822582 -32.95159032 66.27822582 -37.90063477 71.55883789 C-39.24250419 72.9868934 -40.58928244 74.41034485 -41.93969727 75.83032227 C-43.28248381 77.24439313 -44.61433738 78.66895205 -45.93334961 80.10522461 C-46.53284424 80.74081299 -47.13233887 81.37640137 -47.75 82.03125 C-48.27207031 82.59521484 -48.79414062 83.15917969 -49.33203125 83.74023438 C-52.41323204 86.0673708 -55.3021029 85.45412771 -59 85 C-54.01595832 78.96668638 -48.58084697 73.4815829 -43 68 C-44.216875 67.5875 -45.43375 67.175 -46.6875 66.75 C-52.78617937 64.41593752 -56.2559534 61.54420187 -59.17089844 55.54760742 C-60.86357907 50.34645241 -60.40452968 44.90853864 -60.25 39.5 C-60.23195313 38.29601562 -60.21390625 37.09203125 -60.1953125 35.8515625 C-60.14847334 32.9006952 -60.07674038 29.95024112 -60 27 C-65.28 27 -70.56 27 -76 27 C-76 45.81 -76 64.62 -76 84 C-78.64 84 -81.28 84 -84 84 C-84.33 78.72 -84.66 73.44 -85 68 C-86.093125 68.804375 -87.18625 69.60875 -88.3125 70.4375 C-94.78152017 75.19772239 -102.2900645 74.85140392 -110 74 C-114.85061084 71.92304468 -118.35812928 68.74303379 -122 65 C-122.61875 65.81404297 -122.61875 65.81404297 -123.25 66.64453125 C-128.03341294 72.57041112 -131.81133642 75.32692213 -139.37890625 76.30859375 C-145.84070964 76.64230191 -151.40038473 75.25963006 -157 72 C-160.66741974 68.41989978 -161.28907016 65.39925115 -161.5625 60.4375 C-161.41947278 56.38872938 -161.20888253 55.27662821 -158.6875 51.9375 C-156.81706723 50.58904847 -154.91856442 49.27904294 -153 48 C-153.72316406 47.52820313 -153.72316406 47.52820313 -154.4609375 47.046875 C-155.09257813 46.61890625 -155.72421875 46.1909375 -156.375 45.75 C-157.00148438 45.33234375 -157.62796875 44.9146875 -158.2734375 44.484375 C-160.91724905 42.21141484 -161.81298408 40.07354333 -162.40625 36.66796875 C-162.58785412 31.86302635 -162.39265491 28.78547069 -159.25 25 C-155.83963798 21.41739748 -153.07928037 20.08703874 -148.125 19.6875 C-144.11439807 19.80677441 -141.39206344 20.76432182 -138 23 C-133.58708706 27.88998461 -132.87856386 30.44244859 -133 37 C-134.98 37 -136.96 37 -139 37 C-139.45572917 34.98177083 -139.91145833 32.96354167 -140.3671875 30.9453125 C-140.90474428 28.79280036 -140.90474428 28.79280036 -143 27 C-146.89823257 26.78343152 -150.25108903 26.96781086 -154 28 C-155.15349848 34.06968051 -155.15349848 34.06968051 -153.75 39.9375 C-151.48571095 42.60612639 -149.78873541 43.8790073 -146.30078125 44.4140625 C-145.31464844 44.48367187 -144.32851563 44.55328125 -143.3125 44.625 C-142.31863281 44.69976562 -141.32476563 44.77453125 -140.30078125 44.8515625 C-139.54152344 44.90054688 -138.78226563 44.94953125 -138 45 C-138 46.98 -138 48.96 -138 51 C-138.66386719 51.01417969 -139.32773437 51.02835938 -140.01171875 51.04296875 C-144.57338292 51.28936521 -147.31138707 51.51797095 -151.125 54.1875 C-153.16840388 56.87343194 -153.16840388 56.87343194 -153.625 60 C-152.78931708 64.01127801 -151.17074734 65.47781462 -148 68 C-143.47922836 69.95900104 -138.33139332 69.49600928 -133.8125 67.8125 C-128.72994009 64.5370725 -126.4524278 60.80971118 -125 55 C-124.57304512 52.00640832 -124.25442042 49.01287336 -124 46 C-123.33613281 45.91363281 -122.67226563 45.82726562 -121.98828125 45.73828125 C-117.79572124 45.07114396 -114.58629766 44.35895775 -110.9375 42.125 C-107.91264284 37.24619812 -108.1877715 32.69573558 -108 27 C-112.95 27 -117.9 27 -123 27 C-123 25.02 -123 23.04 -123 21 C-74.82 21 -26.64 21 23 21 C16.46076736 10.61481462 16.46076736 10.61481462 6.4453125 6.48828125 C5.67960938 6.43027344 4.91390625 6.37226563 4.125 6.3125 C3.34382812 6.24675781 2.56265625 6.18101562 1.7578125 6.11328125 C1.17773438 6.07589844 0.59765625 6.03851563 0 6 C0 4.02 0 2.04 0 0 Z " fill="#0E0E0E" transform="translate(688,165)"/>
<path d="M0 0 C59.73 0 119.46 0 181 0 C181 1.98 181 3.96 181 6 C177.37 6 173.74 6 170 6 C170 24.81 170 43.62 170 63 C167.69 63 165.38 63 163 63 C163 50.79 163 38.58 163 26 C157.72 26.33 152.44 26.66 147 27 C147.99 28.32 148.98 29.64 150 31 C150.84340953 36.45556797 150.69345092 41.44666993 148.4375 46.5 C143.9228007 51.13046082 140.35489641 53.21554494 133.9375 53.4375 C128.92371454 53.20200402 125.18353765 52.22507234 121.5625 48.53515625 C117.17771968 43.44034048 116.6500674 40.32949284 116.71875 33.76171875 C117.24080326 28.63544581 119.87563535 26.01467054 123.5625 22.6875 C127.85304292 19.71712413 131.70984519 19.86676013 136.73046875 19.90234375 C137.85609978 19.90446617 137.85609978 19.90446617 139.00447083 19.90663147 C141.3988546 19.9122244 143.79314453 19.92477556 146.1875 19.9375 C147.81184761 19.94251592 149.43619668 19.94707866 151.06054688 19.95117188 C155.04040069 19.96219152 159.02018444 19.97945127 163 20 C163 15.38 163 10.76 163 6 C142.87 6 122.74 6 102 6 C102 24.81 102 43.62 102 63 C99.69 63 97.38 63 95 63 C95 53.1 95 43.2 95 33 C81.8 33 68.6 33 55 33 C55.02301401 45.12415978 55.02301401 45.12415978 59.625 56 C63.19983973 57.50519568 66.40289929 57.21134398 70 56 C73.27760318 52.97452014 74.49621607 50.40810938 75 46 C77.31 46 79.62 46 82 46 C81.88754823 50.6002998 81.74323648 54.65521909 78.8125 58.375 C74.61039177 62.29696768 71.24652996 64.14359611 65.5 64.375 C59.67188529 64.14031082 56.29821837 62.35722829 52.25 58.125 C49.02372153 53.64405768 47.74014907 50.21725443 47.8046875 44.69921875 C47.81113281 43.72275391 47.81757812 42.74628906 47.82421875 41.74023438 C47.84097656 40.73283203 47.85773437 39.72542969 47.875 38.6875 C47.88402344 37.66076172 47.89304687 36.63402344 47.90234375 35.57617188 C47.92583799 33.05054101 47.95868869 30.5253919 48 28 C49.53720703 27.85304687 49.53720703 27.85304687 51.10546875 27.703125 C52.46624402 27.55297049 53.82691614 27.40187913 55.1875 27.25 C55.86103516 27.188125 56.53457031 27.12625 57.22851562 27.0625 C61.95261668 26.50943451 64.66439434 25.39048765 68 22 C70.83562902 16.94772642 70.83562902 16.94772642 71 6 C58.13 6 45.26 6 32 6 C32 24.81 32 43.62 32 63 C29.69 63 27.38 63 25 63 C25 44.19 25 25.38 25 6 C19.06 6 13.12 6 7 6 C7 24.81 7 43.62 7 63 C4.69 63 2.38 63 0 63 C0 42.21 0 21.42 0 0 Z " fill="#090909" transform="translate(874,186)"/>
<path d="M0 0 C23.43 0 46.86 0 71 0 C71 1.98 71 3.96 71 6 C67.37 6 63.74 6 60 6 C60 24.81 60 43.62 60 63 C57.69 63 55.38 63 53 63 C53 52.11 53 41.22 53 30 C47.72 30 42.44 30 37 30 C37.061875 32.02125 37.12375 34.0425 37.1875 36.125 C37.16476934 43.11089018 36.08780373 46.53746227 31.5625 51.875 C27.71463555 54.8549251 23.5379402 54.63292548 18.84375 54.41796875 C13.5735888 53.64337088 11.08693152 51.20134536 7.625 47.375 C5.40767457 42.76978564 4.84361762 39.0109903 6 34 C8.95247058 29.03523104 12.4011284 25.64385474 18 24 C22.35140556 23.7449352 26.6361174 23.91184076 31 24 C31 18.06 31 12.12 31 6 C20.77 6 10.54 6 0 6 C0 4.02 0 2.04 0 0 Z " fill="#070707" transform="translate(450,186)"/>
<path d="M0 0 C5.61 0 11.22 0 17 0 C17.09217913 4.85732792 17.17170375 9.71158383 17.21972656 14.5690918 C17.23975797 16.21893637 17.26699142 17.8687107 17.30175781 19.51831055 C17.35065357 21.89910274 17.3730528 24.278951 17.390625 26.66015625 C17.41127014 27.38960953 17.43191528 28.11906281 17.45318604 28.87062073 C17.45554818 34.34508972 16.09079383 37.47176759 13 42 C7.12944716 47.43026138 2.77828699 48.40861893 -5.08984375 48.24609375 C-10.43634697 47.79397334 -13.04534053 45.93344481 -16.8125 42.25 C-19.21727982 38.67718427 -19.74463186 36.25613558 -20 32 C-19.34773437 31.79246094 -18.69546875 31.58492187 -18.0234375 31.37109375 C-10.80817114 28.82765915 -6.74814791 25.9120439 -3.0078125 19.2265625 C-0.30590776 13.12797753 -0.34239004 6.5738888 0 0 Z " fill="#FBFBFB" transform="translate(244,64)"/>
<path d="M0 0 C4.15835028 2.37740026 7.07562302 4.60186905 8.625 9.25 C9.57527159 22.93756579 9.57527159 22.93756579 5.625 28.25 C-0.02181043 33.89681043 -6.14768933 35.42839834 -13.875 35.4375 C-15.70877912 35.3898399 -17.54245615 35.33246447 -19.375 35.25 C-19.31466291 37.64839917 -19.22755482 40.0408385 -19.125 42.4375 C-19.11082031 43.11103516 -19.09664062 43.78457031 -19.08203125 44.47851562 C-18.91233178 47.95735473 -18.41254291 50.18607559 -16.640625 53.203125 C-13.99094282 55.5969758 -12.8956181 55.90373553 -9.375 55.8125 C-6.12871137 55.63082258 -4.62345745 55.40149845 -1.8125 53.6875 C0.02952578 50.56406497 0.34909808 47.83672493 0.625 44.25 C2.935 44.25 5.245 44.25 7.625 44.25 C8.23478185 48.43136125 8.4664915 51.84513707 6.2421875 55.55859375 C2.49293914 59.98140837 -0.52442558 62.79000845 -6.40234375 63.4921875 C-12.13146954 63.82516233 -16.8077877 62.84207765 -21.375 59.25 C-25.19469952 54.53935319 -27.51376869 49.92653446 -27.47265625 43.80078125 C-27.46943359 42.95322266 -27.46621094 42.10566406 -27.46289062 41.23242188 C-27.45451172 40.35134766 -27.44613281 39.47027344 -27.4375 38.5625 C-27.43298828 37.66982422 -27.42847656 36.77714844 -27.42382812 35.85742188 C-27.41204983 33.65488013 -27.39560164 31.45247401 -27.375 29.25 C-26.51334229 29.18268677 -26.51334229 29.18268677 -25.63427734 29.11401367 C-23.00497006 28.90130626 -20.37766639 28.66956789 -17.75 28.4375 C-16.39455078 28.33211914 -16.39455078 28.33211914 -15.01171875 28.22460938 C-9.89701159 27.75793901 -5.73597655 27.20088161 -1.375 24.25 C1.59876614 20.12454409 1.24851412 15.11664915 0.625 10.25 C-1.0368787 7.28752058 -2.24050096 6.569607 -5.46875 5.66015625 C-9.32521259 4.9852753 -11.69954947 4.94820295 -15.3125 6.5625 C-18.2953635 10.44926153 -18.76318792 14.46508167 -19.375 19.25 C-21.685 19.25 -23.995 19.25 -26.375 19.25 C-27.00448659 13.20692869 -26.49395312 8.99031568 -22.9140625 3.98046875 C-16.84112338 -2.84773437 -8.18438154 -3.84071536 0 0 Z " fill="#0F0F0F" transform="translate(855.375,186.75)"/>
<path d="M0 0 C5.08813421 3.0910001 7.91575144 5.963787 9.3984375 11.89453125 C10.09611861 18.16354992 9.74507974 23.38876499 6.3984375 28.89453125 C0.64824989 34.35430535 -5.60432809 36.1801891 -13.4765625 36.01953125 C-14.62898437 36.00148437 -15.78140625 35.9834375 -16.96875 35.96484375 C-18.27199219 35.93003906 -18.27199219 35.93003906 -19.6015625 35.89453125 C-19.44359134 45.92098303 -19.44359134 45.92098303 -15.6015625 54.89453125 C-13.14774116 56.12144192 -11.40172147 56.09629056 -8.6640625 56.14453125 C-7.35115234 56.18320313 -7.35115234 56.18320313 -6.01171875 56.22265625 C-3.57611774 56.08308904 -3.57611774 56.08308904 -1.859375 54.640625 C-0.42831695 52.654032 0.07729422 51.09374204 0.5859375 48.70703125 C0.8540625 47.44890625 1.1221875 46.19078125 1.3984375 44.89453125 C3.7084375 44.89453125 6.0184375 44.89453125 8.3984375 44.89453125 C8.7135465 50.14634795 8.2674083 53.44268002 5.3984375 57.89453125 C1.08812097 61.97798901 -2.52290215 63.69007286 -8.4140625 64.26953125 C-14.33111866 64.10175083 -18.89593368 61.64504504 -22.9765625 57.45703125 C-26.7851844 51.45112749 -26.85425589 46.53149846 -26.7265625 39.58203125 C-26.71753906 38.65068359 -26.70851563 37.71933594 -26.69921875 36.75976562 C-26.67574513 34.47108765 -26.64290979 32.18294453 -26.6015625 29.89453125 C-25.55097656 29.86875 -24.50039063 29.84296875 -23.41796875 29.81640625 C-14.48957806 29.49635795 -6.73241859 29.09250442 0.4609375 23.20703125 C1.98062221 19.45847563 2.05725223 15.86867171 1.3984375 11.89453125 C-0.39549918 9.02423256 -1.58419526 7.40321487 -4.6015625 5.89453125 C-8.98116164 5.38919289 -11.11599263 5.61577818 -14.9765625 7.83203125 C-18.18890441 10.78806929 -18.38773048 13.89189694 -18.59375 18.1015625 C-18.59632813 18.69324219 -18.59890625 19.28492188 -18.6015625 19.89453125 C-20.9115625 19.89453125 -23.2215625 19.89453125 -25.6015625 19.89453125 C-26.23098904 13.85203649 -25.72375881 9.63086928 -22.13671875 4.625 C-16.39721886 -1.84471616 -8.00551489 -3.40174281 0 0 Z " fill="#0C0C0C" transform="translate(762.6015625,186.10546875)"/>
<path d="M0 0 C5.61 0 11.22 0 17 0 C17.09216383 4.30609894 17.1716866 8.60873719 17.21972656 12.91503906 C17.23976332 14.37772252 17.26700104 15.84032666 17.30175781 17.30273438 C17.35063225 19.4129601 17.37304659 21.52212136 17.390625 23.6328125 C17.41157227 24.90012207 17.43251953 26.16743164 17.45410156 27.47314453 C16.81424994 32.44265881 14.66442383 35.53732451 10.9375 38.8125 C6.00932245 41.83299592 0.5862292 41.44017565 -5 41 C-10.37842846 39.14199744 -13.46081756 36.07836487 -16 31 C-16.13415472 28.3276379 -16.04318541 25.67749512 -16 23 C-14.9275 22.896875 -13.855 22.79375 -12.75 22.6875 C-9.07624166 22.01397764 -7.74842404 21.34125011 -5 19 C-4.34 19 -3.68 19 -3 19 C-1.37150031 14.64409432 -0.65881554 10.76065388 -0.375 6.125 C-0.25125 4.10375 -0.1275 2.0825 0 0 Z " fill="#FAFAFA" transform="translate(587,192)"/>
<path d="M0 0 C8.25 0 16.5 0 25 0 C25.08093399 4.22955053 25.1404757 8.45755211 25.1875 12.6875 C25.21263672 13.88568359 25.23777344 15.08386719 25.26367188 16.31835938 C25.27333984 17.47529297 25.28300781 18.63222656 25.29296875 19.82421875 C25.3086792 20.88729248 25.32438965 21.95036621 25.34057617 23.0456543 C24.9488728 26.44350554 24.02428885 28.26689549 22 31 C18.08812183 33.63824342 14.61343427 34.60013158 9.9609375 34.421875 C6.31749306 33.6380264 4.55173013 31.67324109 2 29 C-0.11888251 25.67841139 -0.23511592 23.04135993 -0.1953125 19.140625 C-0.19031738 18.13547852 -0.18532227 17.13033203 -0.18017578 16.09472656 C-0.16196777 14.8259668 -0.14375977 13.55720703 -0.125 12.25 C-0.08375 8.2075 -0.0425 4.165 0 0 Z " fill="#FCFCFC" transform="translate(635,192)"/>
<path d="M0 0 C5.61 0 11.22 0 17 0 C17 3.96 17 7.92 17 12 C22.61 12 28.22 12 34 12 C34 9.36 34 6.72 34 4 C35.5625 1.5 35.5625 1.5 38 0 C41.90614682 -0.55802097 44.05111671 -0.58392818 47.4375 1.5 C49.62171364 4.99474182 49.85853013 8.05683947 49 12 C45.74289129 17.3945863 42.08680944 19.38695568 36 21 C32.95598888 21.36003286 29.9679845 21.35298477 26.90625 21.29296875 C26.07411987 21.28872391 25.24198975 21.28447906 24.38464355 21.28010559 C21.75608407 21.26346307 19.12832333 21.22583976 16.5 21.1875 C14.70574033 21.17243444 12.9114685 21.15874933 11.1171875 21.14648438 C6.74424478 21.11617285 2.37300451 21.05742759 -2 21 C-1.01 10.605 -1.01 10.605 0 0 Z " fill="#FAFAFA" transform="translate(809,64)"/>
<path d="M0 0 C3.125 0.375 3.125 0.375 6 1 C5.01 1.495 5.01 1.495 4 2 C4.33 2.66 4.66 3.32 5 4 C5.66 3.67 6.32 3.34 7 3 C13.79790026 2.32020997 13.79790026 2.32020997 16.7890625 4.01171875 C19.34338667 6.10676788 21.16822725 8.25234087 23 11 C24.32 10.01 25.64 9.02 27 8 C27.61834421 18.61490897 27.61834421 18.61490897 25.4375 23.5 C20.9228007 28.13046082 17.35489641 30.21554494 10.9375 30.4375 C5.92371454 30.20200402 2.18353765 29.22507234 -1.4375 25.53515625 C-5.82297992 20.43952759 -6.3359862 17.33399389 -6.29296875 10.76953125 C-5.77610501 5.88344604 -3.42046436 3.42046436 0 0 Z " fill="#0A0A0A" transform="translate(997,209)"/>
<path d="M0 0 C5.94 0 11.88 0 18 0 C18 1.98 18 3.96 18 6 C14.37 6 10.74 6 7 6 C7 24.81 7 43.62 7 63 C4.69 63 2.38 63 0 63 C0 42.21 0 21.42 0 0 Z " fill="#020202" transform="translate(782,186)"/>
<path d="M0 0 C5.94 0 11.88 0 18 0 C18 7.26 18 14.52 18 22 C11.07 22 4.14 22 -3 22 C-2.34 19.03 -1.68 16.06 -1 13 C-0.73873926 10.65111807 -0.52396847 8.29616739 -0.375 5.9375 C-0.25125 3.978125 -0.1275 2.01875 0 0 Z " fill="#FDFDFD" transform="translate(709,64)"/>
<path d="M0 0 C2.97239241 1.78476241 5.42604027 3.85208055 7 7 C7.35032356 12.34243433 7.4561069 15.64786539 4 20 C-0.25451655 22.83634436 -4.00822671 22.74836793 -9 22 C-12.21245432 19.96763094 -13.53214044 18.5149738 -14.65625 14.875 C-15.40074815 10.63708746 -15.24313886 8.49528286 -13.3125 4.5625 C-9.22687656 0.03518754 -6.13498966 -0.74042979 0 0 Z " fill="#080808" transform="translate(540,17)"/>
<path d="M0 0 C3.97196674 2.13875132 6.36598545 3.78393417 8 8 C8.42556948 12.95611122 7.65591243 16.19650728 4.5 20.0625 C1.18376794 22.36388514 -1.90950781 22.65727527 -5.87890625 22.4296875 C-9.07880776 21.78145699 -10.82542078 20.37844602 -13 18 C-14.2438276 14.2685172 -14.6643142 10.86908268 -14 7 C-10.73768419 1.1303507 -6.56233589 -0.64336626 0 0 Z " fill="#080808" transform="translate(740,17)"/>
<path d="M0 0 C5.61 0 11.22 0 17 0 C17 6.93 17 13.86 17 21 C9.74 21 2.48 21 -5 21 C-3.68 18.36 -2.36 15.72 -1 13 C-0.32279897 9.43191447 -0.32279897 9.43191447 -0.25 6 C-0.1675 4.02 -0.085 2.04 0 0 Z " fill="#FDFDFD" transform="translate(952,192)"/>
<path d="M0 0 C3.02508145 1.73602105 5.41790069 3.83580137 7 7 C7.37510464 10.25090692 7.66540869 12.84388451 5.98828125 15.7578125 C2.83511835 19.67796097 0.64387361 20.8139011 -4.3125 21.375 C-9.20301701 20.87765929 -10.57084492 19.42915508 -14 16 C-15.57455739 12.85088521 -15.34799118 10.47991184 -15 7 C-11.36615891 0.89840116 -7.02513109 -1.19909473 0 0 Z " fill="#F4F4F4" transform="translate(1012,212)"/>
<path d="M0 0 C3.4203866 1.17013226 3.91540482 1.87310723 6 5 C6.43188423 10.35536444 6.44482879 13.6277173 3 18 C-0.50028139 19.75014069 -4.18078874 19.55017114 -8 19 C-10.98977697 17.70220635 -11.83650032 16.66276883 -14 14 C-14.73587645 11.17058357 -14.68756815 8.83621864 -14 6 C-10.19183361 0.03387266 -6.83069552 -0.54211869 0 0 Z " fill="#F7F7F7" transform="translate(990,94)"/>
<path d="M0 0 C3.57703045 0.06275492 4.66800666 0.32312666 7.8125 2.3125 C10.419717 6.43358493 10.78945854 9.62441677 9.75 14.375 C7.8125 17.4375 7.8125 17.4375 4.75 19.375 C0.2701173 20.28231802 -3.1331258 19.91016889 -7.25 17.9375 C-9.7034627 14.79400092 -10.27177879 12.50388193 -10.53125 8.56640625 C-10.25 6.375 -10.25 6.375 -7.875 3.375 C-7.00875 2.715 -6.1425 2.055 -5.25 1.375 C-3.69049449 -0.18450551 -2.16122869 0.09303302 0 0 Z " fill="#F7F7F7" transform="translate(489.25,93.625)"/>
<path d="M0 0 C5.28 0 10.56 0 16 0 C16 5.94 16 11.88 16 18 C10.72 18 5.44 18 0 18 C0 12.06 0 6.12 0 0 Z " fill="#F7F7F7" transform="translate(487,192)"/>
<path d="M0 0 C0.32297455 6.05278224 0.52333984 10.78023727 -3 16 C-6.75047482 18.50031654 -8.55856266 18.53603554 -13 18 C-15.92539902 16.00823896 -17.58729794 14.55075925 -18.515625 11.0625 C-18.85446335 6.99643981 -18.24453388 5.32604518 -15.75 2 C-11.16507132 -1.31133738 -5.36921552 -0.3909623 0 0 Z " fill="#F2F2F2" transform="translate(481,216)"/>
<path d="M0 0 C0.66 0.33 1.32 0.66 2 1 C2 4 2 4 -0.5 6.6875 C-1.325 7.450625 -2.15 8.21375 -3 9 C-3.66 8.67 -4.32 8.34 -5 8 C-4.64950425 4.75791433 -4.43778819 3.38472296 -1.9375 1.1875 C-1.298125 0.795625 -0.65875 0.40375 0 0 Z " fill="#121212" transform="translate(713,230)"/>
<path d="M0 0 C-0.6875 2.375 -0.6875 2.375 -2 5 C-4.625 6.3125 -4.625 6.3125 -7 7 C-4.60526316 0 -4.60526316 0 0 0 Z " fill="#1C1C1C" transform="translate(533,18)"/>
</svg>
